<svg xmlns="http://www.w3.org/2000/svg" viewBox="0 0 369.37 229.51"><defs><style>.cls-1{font-size:56.96px;font-family:MesloLGS-NF-Bold-Italic, MesloLGS NF;font-style:italic;}.cls-1,.cls-2{fill:#faaf3b;}.cls-3{fill:#c4a071;}.cls-4{fill:#fdd61e;}.cls-5{fill:#fad218;}.cls-6{fill:#cfac7d;}.cls-7{fill:#c9a576;}.cls-8{fill:#c19e71;}.cls-9{fill:#917855;}.cls-10{fill:#be996b;}</style></defs><title>Asset 1</title><g id="Layer_2" data-name="Layer 2"><g id="Layer_1-2" data-name="Layer 1"><text class="cls-1" transform="translate(0.92 180.62)">memphis</text><text class="cls-1" transform="translate(300.78 178.95)">ui</text><path class="cls-2" d="M295,5.69c.17-.27.33-.54.49-.81l.16-.26a5,5,0,0,1,.66-1.05,1.64,1.64,0,0,0,.36-.69l.19-.26.81-1.18A5.07,5.07,0,0,1,300.75,0a7,7,0,0,1,1.77.12l.59.1a4.33,4.33,0,0,0,1.16.41,4.17,4.17,0,0,0,1.12.64,10,10,0,0,1,1.54,1.65A5.94,5.94,0,0,1,308,8.51c-1.71,6.15-3.34,12.33-5,18.49-3.66,13.53-7.34,27.06-11.13,40.55q-2.64,9.39-5.23,18.78c-.15.55-.15.55.28.88,1.05.79,2.1,1.57,3.13,2.37l26.67,20.54c.51.39.51.4.18.95l-13,21.46-14.34,23.68q-8.82,14.56-17.64,29.14-8,13.16-15.9,26.31-4.75,7.86-9.51,15.72a3.71,3.71,0,0,1-1.22,1.27l-.84.54a3.3,3.3,0,0,0-.93.26h-.33a7.45,7.45,0,0,1-5.51-1.69,3.77,3.77,0,0,1-1.13-1.37c-.24-.49-.5-1-.76-1.47a2.53,2.53,0,0,0-.24-.81l-.06-.92.06-.67L236,221a.81.81,0,0,0,.16-.43l.24-.8.23-.41c0-.25.28-.4.28-.66a2.8,2.8,0,0,0,.35-.79q1-2.69,2.09-5.39,3.78-9.81,7.53-19.63,3.63-9.5,7.2-19c1-2.57,1.91-5.16,2.86-7.74l.09-.28c.17-.21,0-.53.26-.72a1,1,0,0,0,.18-.46,8.1,8.1,0,0,1,.26-.79c.23-.53.43-1.08.64-1.62a16.84,16.84,0,0,0,.89-2.4,8.41,8.41,0,0,0,.41-1.09,11.36,11.36,0,0,0,.65-2,1.07,1.07,0,0,0,.17-.51,11.05,11.05,0,0,0,.66-1.49.07.07,0,0,0,0-.09,2.74,2.74,0,0,1,.31-.84c.08-.19.17-.37.24-.55q2-5.37,4-10.72,3.32-8.91,6.65-17.82c.21-.59.21-.59-.38-.78l-6.48-2-21.38-6.69c-2.09-.66-4.19-1.3-6.28-2a4.63,4.63,0,0,0-1.15-.35l-.18-.15a5.25,5.25,0,0,1-2.43-3.5,6.07,6.07,0,0,1,.78-4.59q2.78-4.45,5.53-8.92,5-8.19,10-16.4c.15-.24.28-.5.41-.76a5.33,5.33,0,0,0,.87-1.54,8.26,8.26,0,0,0,1.23-1.92A9.39,9.39,0,0,0,254,73.3a.11.11,0,0,0,0-.08.49.49,0,0,0,.28-.33.85.85,0,0,0,.21-.37c.72-1,1.32-2.09,2-3.15q2.71-4.45,5.41-8.93,3.28-5.44,6.58-10.87,3.54-5.87,7.09-11.72L287,19c.21-.35.4-.7.59-1l1.12-1.86c.8-1.14,1.46-2.37,2.19-3.55.88-1.41,1.72-2.84,2.58-4.26a1.88,1.88,0,0,0,.32-.65v0a3.9,3.9,0,0,0,.79-1.21A.93.93,0,0,0,294.8,6,2.33,2.33,0,0,0,295,5.69ZM271.51,56.23l0,.16-.21.27a.24.24,0,0,0-.14.23l-.1.18a.64.64,0,0,0-.3.5l-.5.82a.25.25,0,0,0-.15.25l-.16.27a.48.48,0,0,0-.25.38l-.25.43a2,2,0,0,0-.55.91l-.16.27a1.19,1.19,0,0,0-.39.64l-.1.17a.84.84,0,0,0-.3.5l-.11.17a.27.27,0,0,0-.15.24l-.24.43a.25.25,0,0,0-.15.24l-.11.17a.72.72,0,0,0-.29.5l-.1.16a.24.24,0,0,0-.15.24l-.25.43a.71.71,0,0,0-.3.49l-.11.18a.2.2,0,0,0-.14.22l-.16.28a.51.51,0,0,0-.24.39l-.12.17a.63.63,0,0,0-.28.5l-.16.27a1.06,1.06,0,0,0-.4.65l-.25.42a.29.29,0,0,0-.15.25l-.1.15a.76.76,0,0,0-.29.51l-.1.17a.69.69,0,0,0-.31.5l-.09.15a.91.91,0,0,0-.31.5l-.11.18a.27.27,0,0,0-.15.24l-.24.42a.28.28,0,0,0-.16.24l-.1.16a4.09,4.09,0,0,0-.7,1.17l-.24.43a.27.27,0,0,0-.15.24l-.11.16a.28.28,0,0,0-.16.25l-.23.42a.25.25,0,0,0-.15.24l-.25.41a.82.82,0,0,0-.3.52l-.11.16a.64.64,0,0,0-.29.5l-.1.17a.23.23,0,0,0-.15.24l-.11.17a1.24,1.24,0,0,0-.44.74l-.11.18a.25.25,0,0,0-.15.23l-.25.42a.29.29,0,0,0-.15.25l-.1.17a1.33,1.33,0,0,0-.45.75l-.1.17a.25.25,0,0,0-.15.24l-.11.16a2.42,2.42,0,0,0-.54.91l-.26.42a.78.78,0,0,0-.29.5l-.11.17a.25.25,0,0,0-.15.24l-.23.42a.25.25,0,0,0-.16.25l-.65,1.08a.25.25,0,0,0-.16.24l-.25.42a.79.79,0,0,0-.3.51l-.51.83a6.27,6.27,0,0,0-.95,1.57l-.23.43a1.86,1.86,0,0,0-.56.9l-.1.16a.72.72,0,0,0-.31.5l-.09.17a2.32,2.32,0,0,0-.56.91l-.24.41a.32.32,0,0,0-.17.25l-.1.16a1.71,1.71,0,0,0-.44.76l-.1.16a.29.29,0,0,0-.15.25l-.24.41a.33.33,0,0,0-.16.25l-.11.17a.75.75,0,0,0-.3.5l-.23.42a.25.25,0,0,0-.16.25l-.1.16a.73.73,0,0,0-.3.5l-.1.16a.3.3,0,0,0-.16.26l-.23.41a.77.77,0,0,0-.32.5l-.09.15a.78.78,0,0,0-.3.52l-.1.16a.75.75,0,0,0-.31.5l-.09.15a.29.29,0,0,0-.15.27l-.16.25a.63.63,0,0,0-.26.41l-.14.25a4.13,4.13,0,0,0-.79,1.34l-.11.16a.28.28,0,0,0-.16.23l-.09.17a8.79,8.79,0,0,0-1.1,1.84l-.09.15a3.74,3.74,0,0,0-.72,1.17l-.14.27a7.88,7.88,0,0,0-1.06,1.73l-.08.15a.92.92,0,0,0-.14.14c-.53.79-.52.8.38,1.08l12.83,4a2.71,2.71,0,0,0,1,.24l.32.09a1,1,0,0,0,.47.22c1.77.56,3.53,1.13,5.31,1.67a18.3,18.3,0,0,0,2.4.7l1.54.48a17.93,17.93,0,0,0,3.12,1l.34.09a.47.47,0,0,0,.47.16l.68.24a.23.23,0,0,0,.24.06l1,.31a.77.77,0,0,0,.65.18l.33.12a.79.79,0,0,0,.59.18l1,.32a.19.19,0,0,0,.24.06l1.1.35a4.62,4.62,0,0,0,1.54.49l.63.19a.14.14,0,0,0,.18.06l.62.19a.15.15,0,0,0,.19.06l1,.33a.17.17,0,0,0,.22.06c.25.08.5.17.76.24,1.06.32,1.06.32.64,1.34a1,1,0,0,0-.22.63l-.19.43a6.42,6.42,0,0,0-.62,1.7l-.18.43a.22.22,0,0,0-.09.24l-.17.43a1,1,0,0,0-.22.63l-.19.41a12,12,0,0,0-.9,2.38l-.17.43a.59.59,0,0,0-.18.52l-.33.82a13.49,13.49,0,0,0-.9,2.36l-.17.42a1.21,1.21,0,0,0-.24.66l-.18.41a1,1,0,0,0-.21.65l-.18.41a3.65,3.65,0,0,0-.49,1.31l-.17.42a1,1,0,0,0-.23.65l-.18.41a2,2,0,0,0-.33.93l-.32.81a2.17,2.17,0,0,0-.36.92l-.3.82a.23.23,0,0,0-.1.24l-.17.42a.94.94,0,0,0-.22.64l-.18.42a.88.88,0,0,0-.22.65l-.18.41a.26.26,0,0,0-.1.26l-.16.42a5.26,5.26,0,0,0-.63,1.71l-.19.41a1.05,1.05,0,0,0-.22.64l-.44,1.1a5.52,5.52,0,0,0-.62,1.7l-.18.42a1.48,1.48,0,0,0-.33.92l-.19.42a4.71,4.71,0,0,0-.49,1.31l-.18.43a1,1,0,0,0-.22.63l-.18.43a.92.92,0,0,0-.21.64l-.19.42a.21.21,0,0,0-.09.24l-.16.43a1.06,1.06,0,0,0-.25.64l-.17.42a1,1,0,0,0-.22.64l-.18.42a.19.19,0,0,0-.07.24l-.33.83a.22.22,0,0,0-.09.24l-.17.43a.19.19,0,0,0-.07.24l-.18.43a3.54,3.54,0,0,0-.49,1.3l-.18.43c-.48,1-.82,2-1.21,3.07a4.47,4.47,0,0,0-.48,1.43l-.18.41a.23.23,0,0,0-.09.25l-.31.82a.24.24,0,0,0-.1.25l-.17.43a.89.89,0,0,0-.22.62l-.18.43a.94.94,0,0,0-.22.64l-.19.42a.23.23,0,0,0-.08.25l-.17.43a12.83,12.83,0,0,0-1,2.75l-.3.71a6,6,0,0,0-.63,1.7l-.17.43a3.22,3.22,0,0,0-.49,1.3l-.18.43a.9.9,0,0,0-.22.63l-.18.43a3.08,3.08,0,0,0-.49,1.3l-.18.43a1,1,0,0,0-.22.64l-.17.42a1,1,0,0,0-.24.64l-.29.7a3.91,3.91,0,0,0-.48,1.31l-.22.6a.15.15,0,0,0-.07.19l-.18.42a7.39,7.39,0,0,0-.74,2l-.17.43a10.08,10.08,0,0,0-.9,2.36l-.18.42a10.24,10.24,0,0,0-.88,2.39l-.18.41a.19.19,0,0,0-.08.24l-.23.6a12.22,12.22,0,0,0-1,2.6l-.17.41a2,2,0,0,0-.34.93l-.18.41a8.75,8.75,0,0,0-.77,2.11l-.18.41a4.1,4.1,0,0,0-.51,1.2,17.71,17.71,0,0,0-.9,2.53l-.18.41a31,31,0,0,0-1.17,2.94A6.65,6.65,0,0,0,246,212l-.34.87a6.63,6.63,0,0,0-.73,1.93l-.18.41a.25.25,0,0,0-.08.26l-.16.42a.57.57,0,0,0-.11.16q-1.14,2.94-2.26,5.9a.15.15,0,0,0,.1.22c.1,0,.16-.12.21-.21.41-.84,1-1.59,1.44-2.39a1.05,1.05,0,0,0,.18-.42l.21-.34a.26.26,0,0,0,.14-.24l.77-1.25a1.34,1.34,0,0,0,.43-.73l.28-.43a.24.24,0,0,0,.14-.23l.1-.17a.27.27,0,0,0,.14-.24l.26-.44a.2.2,0,0,0,.14-.22l.26-.45a.22.22,0,0,0,.14-.22l.12-.19a.66.66,0,0,0,.29-.47l.11-.2a.2.2,0,0,0,.14-.21l.41-.7a.24.24,0,0,0,.14-.22l.12-.18a.25.25,0,0,0,.14-.23l.25-.44a.24.24,0,0,0,.15-.23l.12-.18a1.66,1.66,0,0,0,.42-.74l.12-.18a.22.22,0,0,0,.14-.22l.25-.44a.25.25,0,0,0,.14-.23l.12-.17a.23.23,0,0,0,.14-.24l.42-.69a.26.26,0,0,0,.14-.22l.1-.18a.7.7,0,0,0,.29-.49l.51-.86a1.65,1.65,0,0,0,.54-.89l.11-.18a.2.2,0,0,0,.15-.21l.67-1.11a.76.76,0,0,0,.28-.49l.11-.18a.72.72,0,0,0,.31-.47l.24-.45a.23.23,0,0,0,.14-.22l.12-.18a.22.22,0,0,0,.13-.23l.27-.44a.22.22,0,0,0,.14-.21l.26-.45a.77.77,0,0,0,.28-.48l.13-.18a.22.22,0,0,0,.13-.22l.25-.46a.23.23,0,0,0,.15-.21l.51-.86a.22.22,0,0,0,.14-.22l.41-.7a.24.24,0,0,0,.15-.21l.68-1.12a.21.21,0,0,0,.12-.2l.36-.62a.19.19,0,0,0,.14-.21l.41-.7a.22.22,0,0,0,.14-.21l.13-.2a.23.23,0,0,0,.13-.22l.26-.45a.2.2,0,0,0,.14-.21l.26-.45a.64.64,0,0,0,.28-.48l.52-.85a.23.23,0,0,0,.15-.21l.26-.44a.25.25,0,0,0,.13-.23L262.9,188a.2.2,0,0,0,.14-.21l.26-.46a.23.23,0,0,0,.13-.23l.68-1.09a.26.26,0,0,0,.14-.22l.25-.45a.76.76,0,0,0,.29-.47l.78-1.26a.22.22,0,0,0,.12-.23L266,183a.21.21,0,0,0,.14-.2l1.06-1.78a.21.21,0,0,0,.15-.21l.12-.2a.69.69,0,0,0,.27-.48l.12-.18a.68.68,0,0,0,.29-.48l.92-1.52a.22.22,0,0,0,.14-.21l.25-.46a.2.2,0,0,0,.13-.21l.93-1.52a.65.65,0,0,0,.28-.47l.13-.2a.18.18,0,0,0,.12-.2l1.07-1.79a.19.19,0,0,0,.14-.21l.67-1.12a.2.2,0,0,0,.13-.22l.67-1.11a.21.21,0,0,0,.12-.21l.13-.2a.2.2,0,0,0,.14-.21l.68-1.12a.21.21,0,0,0,.12-.21l.67-1.12a.19.19,0,0,0,.12-.21l.14-.19a.19.19,0,0,0,.12-.21l.44-.72a.19.19,0,0,0,.12-.2l.13-.19a.21.21,0,0,0,.11-.23l.28-.45a.21.21,0,0,0,.13-.21l4.35-7.17,5.82-9.62c1.49-2.46,3-4.92,4.49-7.39l4.53-7.52q2.39-3.93,4.76-7.85l4.56-7.5c1-1.69,2.05-3.37,3.07-5.07.33-.54.33-.56-.19-1l-3.27-2.52L283.59,92.24a.22.22,0,0,0-.22-.14l-1-.77a.25.25,0,0,0-.21-.17l-1-.76a.24.24,0,0,0-.21-.16l-.32-.24a.24.24,0,0,0-.2-.17l-.33-.23a.44.44,0,0,0-.34-.28l-.49-.37a.2.2,0,0,0-.15-.18,2.17,2.17,0,0,1,.17-1,.23.23,0,0,0,.05-.25l.1-.33a.15.15,0,0,0,0-.2l.1-.33a.76.76,0,0,0,.16-.59l.09-.34a2.26,2.26,0,0,0,.31-1.13l.1-.33a.17.17,0,0,0,.05-.2l.21-.74a.77.77,0,0,0,.16-.6l.1-.32a.18.18,0,0,0,.05-.22l.08-.32a4.61,4.61,0,0,0,.45-1.67l.1-.32a.15.15,0,0,0,.05-.2l.2-.74a1,1,0,0,0,.21-.73,1.15,1.15,0,0,0,.1-.55l.09-.13a.23.23,0,0,0,.07-.26c0-.18.07-.36.11-.54l0-.12a4.23,4.23,0,0,0,.51-1.73l.19-.68a.2.2,0,0,0,.05-.25l.11-.34a2.33,2.33,0,0,0,.3-1.13l.09-.33a2.16,2.16,0,0,0,.31-1.13l.1-.33a.75.75,0,0,0,.16-.61l.09-.32a2.5,2.5,0,0,0,.32-1.13l.09-.34a.17.17,0,0,0,.05-.2l.09-.33a.77.77,0,0,0,.16-.62l.1-.31a.34.34,0,0,0,.08-.32l.17-.61a.12.12,0,0,0,.06-.18l.08-.31a.85.85,0,0,0,.17-.65l.1-.33a.15.15,0,0,0,.05-.2l.23-.87a.76.76,0,0,0,.17-.6l.09-.33a.76.76,0,0,0,.17-.6l.1-.33a.72.72,0,0,0,.16-.6l.09-.32a4.88,4.88,0,0,0,.46-1.68l.09-.33a.72.72,0,0,0,.16-.6l.09-.32a.35.35,0,0,0,.08-.34l.18-.55a.23.23,0,0,0,.06-.26l.08-.31a.18.18,0,0,0,0-.22l.21-.67a.22.22,0,0,0,.06-.26l.1-.33a.82.82,0,0,0,.16-.61l.09-.32a5.74,5.74,0,0,0,.49-1.78l.17-.61a.16.16,0,0,0,0-.21l.1-.33a.15.15,0,0,0,.05-.2l.21-.73a.72.72,0,0,0,.17-.61L290,49a1.14,1.14,0,0,0,.18-.74l.21-.72a4.46,4.46,0,0,0,.45-1.68l.37-1.26a18.72,18.72,0,0,0,.69-2.32,3.54,3.54,0,0,0,.26-1.21l.1-.33a.16.16,0,0,0,0-.2l.21-.73a.17.17,0,0,0,.05-.21l.1-.32a.16.16,0,0,0,0-.2l.11-.34a1.92,1.92,0,0,0,.27-1l.11-.33a5.34,5.34,0,0,0,.43-1.67l.1-.32A2.32,2.32,0,0,0,294,34.3l.2-.72a.19.19,0,0,0,.06-.22l.1-.32a5.11,5.11,0,0,0,.45-1.67l.08-.31a2.45,2.45,0,0,0,.32-1.15l.09-.32a.18.18,0,0,0,.06-.21l.2-.73a.79.79,0,0,0,.17-.61l.23-.84c.07-.06.11-.12.07-.21l.07-.33a4.41,4.41,0,0,0,.45-1.54l.07-.32a.21.21,0,0,0,.07-.22l.2-.72a.8.8,0,0,0,.16-.62l.09-.3a.2.2,0,0,0,.06-.23l.19-.66a.23.23,0,0,0,.06-.27l.1-.31a.75.75,0,0,0,.16-.58l.08-.3a1.34,1.34,0,0,0,.21-.8l.08-.31a1,1,0,0,0,.21-.75l.46-1.65a.83.83,0,0,0,.17-.63l.1-.3a.2.2,0,0,0,.05-.23l.22-.84a7.59,7.59,0,0,0,.6-2.09l.18-.69a.22.22,0,0,0,.06-.24l.09-.3a.89.89,0,0,0,.17-.63l.08-.3a.22.22,0,0,0,.07-.24l.19-.64a.3.3,0,0,0,.06-.3l.09-.28a15.42,15.42,0,0,0,.71-2.71,20.17,20.17,0,0,0-1.88,3l-.09.16a.76.76,0,0,0-.31.5l-.1.16a.27.27,0,0,0-.15.25l-.24.42a.27.27,0,0,0-.16.24l-.25.41a2.18,2.18,0,0,0-.56.92l-.24.42a1.17,1.17,0,0,0-.4.66l-.15.26a.56.56,0,0,0-.26.39l-.25.42a2.58,2.58,0,0,0-.55.91l-.25.43a.27.27,0,0,0-.15.24l-.11.16a.72.72,0,0,0-.29.5l-.1.18a.62.62,0,0,0-.3.49l-.1.16a2.35,2.35,0,0,0-.56.9l-.4.69a4,4,0,0,0-.8,1.31l-.25.43a2.9,2.9,0,0,0-.7,1.15l-.12.18a.22.22,0,0,0-.13.22l-.4.7a.48.48,0,0,0-.25.38l-.25.43a.24.24,0,0,0-.15.24l-.11.18a.19.19,0,0,0-.15.22l-.16.28a.27.27,0,0,0-.13.24l-.11.18a.23.23,0,0,0-.15.23l-.11.16a.69.69,0,0,0-.29.51l-.1.17a.22.22,0,0,0-.16.23l-.16.27a.27.27,0,0,0-.13.24l-.11.18a.21.21,0,0,0-.14.23l-.12.17a.68.68,0,0,0-.28.5l-.11.17A.24.24,0,0,0,288,29l-.26.41a.29.29,0,0,0-.14.25l-.1.18a.64.64,0,0,0-.31.48l-.24.43a1.73,1.73,0,0,0-.55.9l-.26.43a.22.22,0,0,0-.15.23l-.1.17a.74.74,0,0,0-.29.51l-.11.17a.22.22,0,0,0-.15.22l-.51.84a1.37,1.37,0,0,0-.44.76l-.5.83a1.17,1.17,0,0,0-.41.64l-.16.28a.27.27,0,0,0-.14.23l-.12.17a.24.24,0,0,0-.13.23l-.11.19a.69.69,0,0,0-.28.49l-.12.17a.23.23,0,0,0-.14.23l-.11.18a.71.71,0,0,0-.28.5l-.11.17a.61.61,0,0,0-.31.48l-.24.44a.66.66,0,0,0-.31.49l-.1.16a.24.24,0,0,0-.14.24l-.92,1.5a.25.25,0,0,0-.15.24l-.24.43a.23.23,0,0,0-.15.23l-.12.18a4.09,4.09,0,0,0-.69,1.15l-.25.43a.23.23,0,0,0-.14.24l-.66,1.09a.25.25,0,0,0-.16.23l-.09.18a3.14,3.14,0,0,0-.7,1.16l-.52.83a.74.74,0,0,0-.29.5l-.1.16a.71.71,0,0,0-.3.5l-.1.17a.79.79,0,0,0-.3.49l-.1.17a.68.68,0,0,0-.3.5l-.36.58a2.17,2.17,0,0,0-.54.9,1.59,1.59,0,0,0-.28.55l-.12.14a.24.24,0,0,0-.15.23l-.11.17a.23.23,0,0,0-.15.24l-.24.43a.21.21,0,0,0-.15.23l-.26.43a.78.78,0,0,0-.29.49l-.12.18A.23.23,0,0,0,271.51,56.23Z"/><path class="cls-3" d="M236.5,112.81l.18.15C236.6,112.94,236.47,113,236.5,112.81Z"/><path class="cls-4" d="M278.69,126.27c.06-.14.12-.27.19-.41a.74.74,0,0,0,.22-.63c.06-.15.12-.29.17-.43a.17.17,0,0,0,.09-.24l.18-.43a4.16,4.16,0,0,0,.62-1.7c.07-.14.13-.29.19-.43a.74.74,0,0,0,.22-.63c.42-1,.42-1-.64-1.34-.26-.07-.51-.16-.75-.24a.18.18,0,0,0-.23-.06l-1-.33a.12.12,0,0,0-.19-.06l-.62-.19c0-.09-.09-.12-.18-.06l-.63-.19a3.67,3.67,0,0,0-1.54-.49l-1.1-.35a.19.19,0,0,0-.24-.06l-1-.32a.57.57,0,0,0-.59-.18l-.33-.12a.71.71,0,0,0-.65-.18l-1-.31a.16.16,0,0,0-.24-.06l-.68-.24c-.14-.11-.27-.24-.47-.16l-.34-.09a14.87,14.87,0,0,0-3.12-1l-1.54-.48a2.07,2.07,0,0,0-.77-.35c-1.82-.57-3.62-1.15-5.45-1.69a9.51,9.51,0,0,0-2-.55l-.32-.09a.93.93,0,0,0-.4-.22c-1.79-.57-3.57-1.18-5.37-1.71-2.54-.75-5-1.63-7.59-2.38a.79.79,0,0,1-.64-.72c0-.16,0-.31,0-.47l.08-.15a4,4,0,0,0,1.06-1.73l.14-.27a1.8,1.8,0,0,0,.72-1.17l.09-.15a4.55,4.55,0,0,0,1.1-1.84l.09-.17a.19.19,0,0,0,.16-.23l.11-.16a2.82,2.82,0,0,0,.79-1.34l.14-.25c.18-.08.3-.19.26-.41l.16-.25a.24.24,0,0,0,.15-.27l.09-.15a.53.53,0,0,0,.31-.5l.1-.16a.55.55,0,0,0,.3-.52l.09-.15a.54.54,0,0,0,.32-.5l.23-.41a.24.24,0,0,0,.16-.26l.1-.16a.53.53,0,0,0,.3-.5l.1-.16a.23.23,0,0,0,.16-.25l.23-.42a.53.53,0,0,0,.3-.5l.11-.17a.22.22,0,0,0,.16-.25l.24-.41a.2.2,0,0,0,.15-.25l.1-.16a1,1,0,0,0,.44-.76l.1-.16a.23.23,0,0,0,.17-.25l.24-.41a1.27,1.27,0,0,0,.56-.91l.09-.17a.53.53,0,0,0,.31-.5l.09-.16a1.41,1.41,0,0,0,.57-.9l.23-.43a3.49,3.49,0,0,0,.95-1.57l.51-.83a.51.51,0,0,0,.3-.51l.25-.42a.22.22,0,0,0,.16-.24c.21-.36.43-.72.65-1.08a.23.23,0,0,0,.16-.25l.23-.42a.2.2,0,0,0,.15-.24l.11-.16a.53.53,0,0,0,.29-.51l.26-.42a1.25,1.25,0,0,0,.54-.91l.11-.16a.2.2,0,0,0,.15-.24l.1-.17a1,1,0,0,0,.45-.75l.1-.17a.21.21,0,0,0,.15-.25l.25-.42a.18.18,0,0,0,.15-.23l.11-.18a1,1,0,0,0,.44-.74l.11-.17a.21.21,0,0,0,.15-.24l.1-.17a.54.54,0,0,0,.29-.5l.11-.16a.54.54,0,0,0,.3-.52l.25-.4a.22.22,0,0,0,.15-.25l.23-.42a.22.22,0,0,0,.16-.25l.11-.16a.2.2,0,0,0,.15-.24l.24-.43a1.8,1.8,0,0,0,.7-1.17l.1-.16a.2.2,0,0,0,.16-.24l.24-.42a.19.19,0,0,0,.15-.24l.11-.17a.44.44,0,0,0,.31-.51l.09-.15a.51.51,0,0,0,.31-.5l.1-.17c.24-.08.3-.27.29-.51l.1-.15a.2.2,0,0,0,.15-.25l.25-.42a.74.74,0,0,0,.4-.65L265,67a.56.56,0,0,0,.28-.5l.11-.17a.34.34,0,0,0,.25-.39l.16-.27a.2.2,0,0,0,.14-.23l.11-.18a.52.52,0,0,0,.3-.49c.08-.15.16-.29.25-.43a.22.22,0,0,0,.15-.24l.1-.16a.54.54,0,0,0,.29-.5l.11-.17a.2.2,0,0,0,.15-.24l.24-.43a.19.19,0,0,0,.15-.24l.11-.17a.5.5,0,0,0,.3-.5l.1-.17a.69.69,0,0,0,.39-.64l.16-.27a1.36,1.36,0,0,0,.55-.91l.25-.43a.33.33,0,0,0,.25-.38l.16-.27a.21.21,0,0,0,.15-.25l.5-.82a.58.58,0,0,0,.3-.5l.1-.18.16-.06c.13.58.41,1.16,0,1.76a.36.36,0,0,0,.07.47c.59.62.58.62.19,1.31l-.07.11c-.15.27-.26.55-.66.53a.35.35,0,0,0-.38.38,2.07,2.07,0,0,0,.29,1.14A2.09,2.09,0,0,1,271,63a.43.43,0,0,1,0,.45c-.13.16-.28.06-.41,0s-.4-.11-.5.13a.33.33,0,0,0,.23.48c.46.12.54.82,1.14.72,0,0,.12.13.15.21a.55.55,0,0,0,.46.34c.3,0,.31.21.22.48a.9.9,0,0,0,.53,1.11c.54.19.57.21.49.82-.05.34,0,.51.37.53a1.42,1.42,0,0,1,1,.52,1.73,1.73,0,0,0,.58.42.49.49,0,0,1,.28.76,4.87,4.87,0,0,0-.23.83.65.65,0,0,0,.11.56c.19.25.45.23.57,0s.06-.31.12-.45c.15-.33.41-.35.6-.06a1.14,1.14,0,0,1,.21.75,2.56,2.56,0,0,0,.35,1.77.77.77,0,0,1,.1.45,1.57,1.57,0,0,0,.23.75c.27.48.54,1-.1,1.38a.23.23,0,0,0,0,.31.26.26,0,0,0,.35.1.62.62,0,0,0,.34-.3c.12-.18.22-.38.33-.57s.23-.28.43-.18a.27.27,0,0,1,.12.4,2.45,2.45,0,0,0-.21,1.1,1.34,1.34,0,0,0,1,1.43c.15,0,.33,0,.28-.17-.21-.54-.12-1.16-.5-1.63a.43.43,0,0,1-.06-.54.58.58,0,0,1,.63-.26c.23,0,.41.14.4.37a3.34,3.34,0,0,0,.36,1.2c.31.85.31.85,1.16.54a1.15,1.15,0,0,1-.1.55,1.06,1.06,0,0,0-.21.73c-.06.25-.13.49-.2.74-.09.05-.11.11-.05.2l-.1.32a4.42,4.42,0,0,0-.45,1.67l-.08.32a.15.15,0,0,0-.05.22l-.09.32a.76.76,0,0,0-.17.6l-.21.74c-.09.05-.11.12-.05.2l-.1.33a2.23,2.23,0,0,0-.31,1.13l-.09.33a.64.64,0,0,0-.16.6l-.1.33c-.08.06-.11.12,0,.2l-.1.33a.19.19,0,0,0-.05.25,2.17,2.17,0,0,0-.17,1,.15.15,0,0,0,.15.18l.48.37a.36.36,0,0,0,.35.28l.33.23c0,.12.08.17.2.17l.32.24a.18.18,0,0,0,.21.16l1,.76a.19.19,0,0,0,.21.17l1,.77a.17.17,0,0,0,.22.14l21.67,16.68,3.27,2.52c.52.4.52.42.19,1-1,1.7-2,3.38-3.07,5.07l-4.56,7.5q-2.37,3.93-4.76,7.85l-4.53,7.52c-1.49,2.47-3,4.93-4.49,7.39l-5.82,9.62-4.35,7.17a.18.18,0,0,0-.13.21l-.28.45a.18.18,0,0,0-.11.23l-.13.19a.14.14,0,0,0-.12.2l-.44.72a.18.18,0,0,0-.12.21l-.14.19a.17.17,0,0,0-.12.21l-.67,1.12a.16.16,0,0,0-.12.21l-.68,1.12a.18.18,0,0,0-.14.21l-.13.2c-.11,0-.14.1-.12.21l-.67,1.11a.18.18,0,0,0-.13.22c-.22.37-.44.75-.67,1.12a.17.17,0,0,0-.14.21L271,174.64a.16.16,0,0,0-.12.21l-.13.2a.51.51,0,0,0-.28.47l-.93,1.52a.17.17,0,0,0-.13.21l-.25.46a.17.17,0,0,0-.14.21l-.92,1.52a.53.53,0,0,0-.29.48l-.12.18a.5.5,0,0,0-.27.48l-.12.2c-.12,0-.16.09-.15.21l-1.06,1.77a.18.18,0,0,0-.14.21l-.27.45a.18.18,0,0,0-.12.23l-.78,1.26a.46.46,0,0,0-.29.47l-.25.45a.18.18,0,0,0-.14.22l-.68,1.09a.19.19,0,0,0-.13.23l-.26.46a.17.17,0,0,0-.14.21l-1.32,2.18c-.12,0-.15.11-.13.23l-.26.44c-.12,0-.16.09-.15.21l-.52.85a.51.51,0,0,0-.28.48c-.08.15-.17.3-.26.45a.17.17,0,0,0-.14.21l-.26.45a.18.18,0,0,0-.13.22l-.13.19a.18.18,0,0,0-.14.22l-.41.7a.18.18,0,0,0-.14.21l-.36.61a.15.15,0,0,0-.12.21l-.68,1.12a.16.16,0,0,0-.15.21l-.41.7a.18.18,0,0,0-.14.22l-.51.86a.17.17,0,0,0-.15.21l-.25.46c-.12,0-.15.1-.13.22l-.12.18a.46.46,0,0,0-.29.48l-.26.45a.17.17,0,0,0-.14.21l-.26.44a.2.2,0,0,0-.14.23l-.12.18a.17.17,0,0,0-.14.22l-.24.45a.5.5,0,0,0-.31.47l-.11.18a.51.51,0,0,0-.28.49c-.23.37-.45.74-.67,1.11a.19.19,0,0,0-.15.21l-.11.18a1.54,1.54,0,0,0-.54.89l-.51.86a.51.51,0,0,0-.29.49l-.1.18c-.12,0-.16.1-.14.22l-.42.69a.21.21,0,0,0-.14.24l-.12.17a.19.19,0,0,0-.14.23l-.25.44a.17.17,0,0,0-.14.22l-.12.18a.94.94,0,0,0-.42.74l-.12.18a.2.2,0,0,0-.15.23l-.25.44a.18.18,0,0,0-.14.23l-.12.18a.17.17,0,0,0-.14.22l-.41.7a.18.18,0,0,0-.14.21l-.11.2a.51.51,0,0,0-.29.47l-.12.19a.18.18,0,0,0-.14.22l-.26.45a.18.18,0,0,0-.14.22l-.26.44a.21.21,0,0,0-.14.24l-.1.17a.18.18,0,0,0-.14.23c-.09.14-.18.29-.28.43a.9.9,0,0,0-.43.73c-.26.42-.51.84-.77,1.25a.2.2,0,0,0-.14.24l-.21.34c-.57-.2-.59-.23-.43-.72.11-.31.23-.62.35-.93a7,7,0,0,0,.52-1.61l.16-.42a.18.18,0,0,0,.08-.26l.18-.41a5.51,5.51,0,0,0,.73-1.93c.12-.29.23-.58.34-.87a.42.42,0,0,0,.18-.27c.31-.8.64-1.6.92-2.41a6.57,6.57,0,0,0,.59-1.82l.18-.41a4.27,4.27,0,0,0,.58-1.31,13.83,13.83,0,0,0,.83-2.42l.17-.41a5.87,5.87,0,0,0,.6-1.36,1.1,1.1,0,0,0,.18-.75l.18-.41a1.28,1.28,0,0,0,.34-.93l.17-.41c.32-.25.32-.66.45-1a5.22,5.22,0,0,0,.54-1.6c.08-.2.15-.4.22-.6a.18.18,0,0,0,.09-.24l.18-.41a8.08,8.08,0,0,0,.88-2.39l.18-.42a8.66,8.66,0,0,0,.9-2.36c.05-.15.11-.29.17-.43a5.86,5.86,0,0,0,.74-2l.18-.42c.1,0,.14-.09.07-.19s.14-.4.22-.6a2.15,2.15,0,0,0,.48-1.31l.29-.7a.74.74,0,0,0,.24-.64c.06-.14.11-.28.17-.41a.72.72,0,0,0,.22-.65l.18-.43a2.52,2.52,0,0,0,.49-1.3l.18-.43a.71.71,0,0,0,.22-.63l.18-.43a2.26,2.26,0,0,0,.49-1.3c.06-.14.11-.29.17-.43a4.17,4.17,0,0,0,.63-1.7l.3-.71a10.37,10.37,0,0,0,1-2.75l.17-.43a.18.18,0,0,0,.08-.25l.19-.42a.7.7,0,0,0,.22-.64l.18-.42a.69.69,0,0,0,.22-.63l.17-.43a.18.18,0,0,0,.1-.25c.11-.27.21-.55.31-.82a.19.19,0,0,0,.09-.25c.06-.14.12-.27.17-.41a.81.81,0,0,0,.27-.45c.32-.87.66-1.73,1-2.61a4.26,4.26,0,0,0,.46-1.44l.18-.43a2.56,2.56,0,0,0,.49-1.3l.18-.43a.17.17,0,0,0,.07-.24l.17-.43a.18.18,0,0,0,.09-.24l.33-.83a.18.18,0,0,0,.07-.24l.18-.42a.7.7,0,0,0,.22-.64c.06-.14.12-.28.17-.42a.74.74,0,0,0,.25-.64c.05-.14.1-.29.16-.43a.18.18,0,0,0,.09-.24l.19-.42a.76.76,0,0,0,.21-.64l.18-.43a.57.57,0,0,0,.22-.63l.18-.43a2.42,2.42,0,0,0,.49-1.31l.19-.42a1.34,1.34,0,0,0,.33-.92l.18-.42a4.64,4.64,0,0,0,.62-1.7l.44-1.1a.65.65,0,0,0,.22-.64c.06-.14.13-.27.19-.41a4.7,4.7,0,0,0,.63-1.71l.16-.42a.19.19,0,0,0,.1-.26L272,144a.78.78,0,0,0,.22-.65l.18-.42a.72.72,0,0,0,.22-.64l.17-.42a.18.18,0,0,0,.1-.24l.3-.82a1.26,1.26,0,0,0,.36-.92c.11-.27.22-.54.32-.81a1.26,1.26,0,0,0,.33-.93l.18-.41a.74.74,0,0,0,.23-.65c.06-.14.12-.28.17-.42a2.69,2.69,0,0,0,.49-1.31l.18-.41a.69.69,0,0,0,.21-.65l.18-.41a.76.76,0,0,0,.24-.66l.17-.42a7,7,0,0,0,.9-2.36l.33-.82a.54.54,0,0,0,.18-.52l.17-.43A7.8,7.8,0,0,0,278.69,126.27Z"/><path class="cls-5" d="M282,77.69c-.85.31-.85.31-1.16-.54a3.34,3.34,0,0,1-.36-1.2c0-.23-.17-.35-.4-.37a.58.58,0,0,0-.63.26.43.43,0,0,0,.06.54c.38.47.29,1.09.5,1.63.05.14-.13.21-.28.17a1.34,1.34,0,0,1-1-1.43,2.45,2.45,0,0,1,.21-1.1.27.27,0,0,0-.12-.4c-.2-.1-.33,0-.43.18s-.21.39-.33.57a.62.62,0,0,1-.34.3.26.26,0,0,1-.35-.1.23.23,0,0,1,0-.31c.64-.42.37-.9.1-1.38a1.57,1.57,0,0,1-.23-.75.77.77,0,0,0-.1-.45,2.56,2.56,0,0,1-.35-1.77,1.14,1.14,0,0,0-.21-.75c-.19-.29-.45-.27-.6.06-.06.14-.06.31-.12.45s-.38.29-.57,0a.65.65,0,0,1-.11-.56,4.87,4.87,0,0,1,.23-.83.49.49,0,0,0-.28-.76,1.73,1.73,0,0,1-.58-.42,1.42,1.42,0,0,0-1-.52c-.36,0-.42-.19-.37-.53.08-.61.05-.63-.49-.82a.9.9,0,0,1-.53-1.11c.09-.27.08-.43-.22-.48a.55.55,0,0,1-.46-.34c0-.08-.11-.21-.15-.21-.6.1-.68-.6-1.14-.72a.33.33,0,0,1-.23-.48c.1-.24.29-.23.5-.13s.28.17.41,0a.43.43,0,0,0,0-.45,2.09,2.09,0,0,0-.26-.46,2.07,2.07,0,0,1-.29-1.14.35.35,0,0,1,.38-.38c.4,0,.51-.26.66-.53l.07-.11c.39-.69.4-.69-.19-1.31a.36.36,0,0,1-.07-.47c.37-.6.09-1.18,0-1.76a.88.88,0,0,0,0-.17l.21-.27c.09,0,.2.11.27,0s0-.14-.09-.19V56l.11-.18a.48.48,0,0,0,.3-.49l.26-.42a.21.21,0,0,0,.15-.24l.24-.43.18-.11c.47.31.49.32.24.75-.09.15-.15.27,0,.41.31.34.13.58-.12.85s-.5.3-.53.65c.28.11.55,0,.81,0s.46,0,.45-.36a1.13,1.13,0,0,1,.35-.9.54.54,0,0,0,.05-.73c-.18-.27-.36-.56-.53-.84a.58.58,0,0,0-.43-.28.56.56,0,0,0,0-.12l.12-.14c.72.06.85,0,.92-.65,0-.2-.1-.26-.26-.31a1.23,1.23,0,0,0,.16-.49l.36-.58a.51.51,0,0,0,.3-.5l.1-.17a.48.48,0,0,0,.3-.49l.1-.17a.49.49,0,0,0,.3-.5l.1-.16a.5.5,0,0,0,.29-.5l.52-.83a1.9,1.9,0,0,0,.7-1.16l.09-.18a.2.2,0,0,0,.16-.23l.66-1.09a.19.19,0,0,0,.14-.24l.25-.43a1.76,1.76,0,0,0,.69-1.15l.12-.18a.19.19,0,0,0,.15-.23l.24-.43a.2.2,0,0,0,.15-.24l.92-1.5a.19.19,0,0,0,.14-.24l.1-.16a.52.52,0,0,0,.31-.49l.24-.44a.58.58,0,0,0,.31-.48l.11-.17a.46.46,0,0,0,.28-.5l.11-.18a.19.19,0,0,0,.14-.23l.12-.17a.5.5,0,0,0,.28-.49l.11-.19a.17.17,0,0,0,.13-.23l.12-.17a.17.17,0,0,0,.14-.23l.16-.28a.74.74,0,0,0,.41-.64l.5-.83a1.09,1.09,0,0,0,.44-.76l.51-.84a.19.19,0,0,0,.15-.22l.11-.17a.54.54,0,0,0,.29-.51l.1-.17a.19.19,0,0,0,.15-.23l.26-.43a1.47,1.47,0,0,0,.55-.9l.24-.43a.54.54,0,0,0,.31-.48l.1-.18a.2.2,0,0,0,.14-.25c.09-.14.18-.27.26-.41a.2.2,0,0,0,.15-.24l.11-.17a.53.53,0,0,0,.28-.5l.12-.17a.18.18,0,0,0,.14-.23l.11-.18a.17.17,0,0,0,.13-.24l.16-.27a.21.21,0,0,0,.16-.23l.1-.17a.57.57,0,0,0,.29-.51l.11-.16a.19.19,0,0,0,.15-.23l.11-.18a.18.18,0,0,0,.13-.24l.16-.28a.2.2,0,0,0,.15-.22l.11-.18a.22.22,0,0,0,.15-.24l.25-.43a.33.33,0,0,0,.25-.38l.4-.7c.12,0,.15-.1.13-.22l.12-.18a2.25,2.25,0,0,0,.7-1.15l.25-.43a2.75,2.75,0,0,0,.8-1.31c.14-.23.27-.46.4-.69a1.26,1.26,0,0,0,.56-.9l.1-.16a.56.56,0,0,0,.3-.49l.1-.18a.54.54,0,0,0,.29-.5l.11-.16a.2.2,0,0,0,.15-.24l.25-.43a1.17,1.17,0,0,0,.55-.91l.25-.42a.35.35,0,0,0,.26-.39l.15-.26a.75.75,0,0,0,.4-.66l.24-.42a1.32,1.32,0,0,0,.56-.92c.09-.13.17-.27.25-.41s.16-.12.16-.24l.24-.42a.21.21,0,0,0,.15-.25l.1-.16a.52.52,0,0,0,.31-.5l.09-.16c.18-.07.25-.23.35-.38s.37-.59.56-.89a.23.23,0,0,1,.28-.12c.12.05.09.18.09.28,0,.29-.18.55-.11.84l-.09.28a.25.25,0,0,0-.06.3l-.19.64a.17.17,0,0,0-.07.24l-.08.3a.7.7,0,0,0-.17.63l-.09.3a.16.16,0,0,0-.06.24l-.18.69a6.35,6.35,0,0,0-.6,2.09l-.22.84a.15.15,0,0,0-.05.23l-.1.3a.76.76,0,0,0-.17.63c-.15.55-.31,1.1-.46,1.65a1,1,0,0,0-.21.75l-.08.31a1,1,0,0,0-.21.8l-.08.3a.59.59,0,0,0-.16.58l-.1.31a.25.25,0,0,0-.06.27l-.19.66a.16.16,0,0,0-.06.23l-.09.3a.73.73,0,0,0-.16.62c-.07.24-.14.48-.2.72-.1.05-.13.12-.07.22l-.07.32a3.32,3.32,0,0,0-.45,1.54L296,27c-.1.05-.13.12-.07.22-.08.28-.15.56-.23.84a.7.7,0,0,0-.17.61l-.2.73c-.1.05-.13.12-.06.21l-.09.32a2,2,0,0,0-.32,1.15c0,.1,0,.21-.08.31a4.24,4.24,0,0,0-.45,1.67l-.1.32c-.08.06-.12.13-.06.22l-.2.72a2.27,2.27,0,0,0-.31,1.14l-.1.32a3.49,3.49,0,0,0-.43,1.67l-.11.33a1.63,1.63,0,0,0-.27,1l-.11.34a.12.12,0,0,0,0,.2l-.1.32c-.07.06-.11.12-.05.21l-.21.73c-.08,0-.11.12,0,.2l-.1.33a19.76,19.76,0,0,0-.72,2.38,3.23,3.23,0,0,0-.23,1.15l-.37,1.26a4.87,4.87,0,0,0-.45,1.68l-.21.72A.87.87,0,0,0,290,49l-.1.32a.8.8,0,0,0-.17.61l-.21.72c-.09.06-.11.13-.05.21l-.1.33a.14.14,0,0,0,0,.21l-.17.61a4.43,4.43,0,0,0-.49,1.78l-.09.32a.62.62,0,0,0-.16.61l-.1.33a.2.2,0,0,0-.06.26L288,56a.14.14,0,0,0,0,.22l-.08.31a.22.22,0,0,0-.06.26l-.18.55a.24.24,0,0,0-.08.34l-.09.32a.64.64,0,0,0-.16.6l-.09.33a4.3,4.3,0,0,0-.46,1.68l-.09.32a.72.72,0,0,0-.16.6l-.1.33a.66.66,0,0,0-.17.6l-.09.33a.67.67,0,0,0-.17.6l-.23.87c-.09,0-.11.12-.05.2l-.1.33a.85.85,0,0,0-.17.65l-.08.31a.12.12,0,0,0-.06.18c-.05.21-.11.41-.17.61l-.15.18c-.1-.09-.2-.2-.34-.09a.25.25,0,0,0,0,.36,1.26,1.26,0,0,0,.24.22c0,.2-.16.37-.07.58l-.09.33c-.09,0-.11.12-.05.2l-.09.34a2.06,2.06,0,0,0-.32,1.13l-.09.32a.67.67,0,0,0-.16.61l-.1.33a2.23,2.23,0,0,0-.31,1.13l-.09.33a2.15,2.15,0,0,0-.3,1.13l-.11.34a.19.19,0,0,0-.05.25c-.06.23-.13.46-.19.68-.31.44-.28,1-.5,1.47-.15,0-.34,0-.36.18s.18.17.31.2l-.11.54a.21.21,0,0,0-.07.26Zm-2.84-3.59c-.14,0-.38,0-.45.2s.08.42.27.54a1.53,1.53,0,0,0,.61.24c.22,0,.33-.09.36-.29C280.05,74.38,279.75,74.1,279.18,74.1Zm-4.32-7.3a.42.42,0,0,0,0-.38.21.21,0,0,0-.22-.11c-.06,0-.15.09-.14.11.11.45-.1.87-.05,1.31a.27.27,0,0,0,.23.28c.18,0,.28-.1.34-.25a.46.46,0,0,0,0-.38A.91.91,0,0,1,274.86,66.8Zm7,3.33c0-.18.05-.44-.22-.48s-.3.17-.28.36.06.48.33.5S281.84,70.28,281.86,70.13Zm.77-1.4a.34.34,0,0,0-.31-.32c-.16,0-.26.06-.24.22s0,.39.24.41S282.61,69,282.63,68.73Zm-9.94-9.35c-.22.17-.47.23-.45.53a.15.15,0,0,0,.2.12C272.68,59.92,272.8,59.74,272.69,59.38Zm1.25,6.48a.29.29,0,0,0-.32-.25.19.19,0,0,0-.21.2c0,.19.14.26.32.26A.2.2,0,0,0,273.94,65.86Zm8.68,4.48a.42.42,0,0,0-.39.28c0,.14.07.21.18.23a.3.3,0,0,0,.35-.31A.16.16,0,0,0,282.62,70.34Zm-9.35-5.59a.2.2,0,0,0-.21-.21c-.14,0-.28,0-.32.16a.21.21,0,0,0,.16.26A.3.3,0,0,0,273.27,64.75Zm4.4-7.14c0-.13,0-.28-.2-.28s-.12.11-.12.2-.05.3.14.32S277.65,57.73,277.67,57.61Zm-4.44-.39a1,1,0,0,0-.17.87A1,1,0,0,0,273.23,57.22Zm.74,1c0-.09-.07-.18-.16-.17s-.17.11-.16.23a.16.16,0,0,0,.19.14C273.94,58.42,274,58.34,274,58.24ZM277.18,69c0-.08,0-.19-.08-.21s-.13.07-.14.15,0,.19.08.21S277.16,69.08,277.18,69Zm2.89,4.25c0-.08,0-.13-.12-.13a.15.15,0,0,0-.13.13.11.11,0,0,0,.12.12A.12.12,0,0,0,280.07,73.25Zm-4.71-18.34s-.07-.06-.1,0-.05,0-.07.08.06.06.09.06S275.33,54.94,275.36,54.91Zm8.11,11.37s0-.09,0-.1a.11.11,0,0,0-.11,0,.06.06,0,0,0,0,.1S283.43,66.29,283.47,66.28Zm-5.4,8-.09.08s.06.08.09.08.05,0,.08-.08Zm3.26-.83s.07-.06.07-.09,0,0-.07-.08-.08.06-.08.08S281.3,73.42,281.33,73.45Zm-6.43-18v.05s.07,0,.08,0l0,0Zm-2.26,3.46s0,0,0,.05.07,0,.07,0,0,0,0,0Zm9.47,10.5s0,0,0,0,0,.07.07,0,0,0,0,0Zm-1.45,3.28s0,0,0,0,0,0,0,0-.07,0-.07,0Z"/><path class="cls-6" d="M241.07,106.7c0,.16,0,.31,0,.47a.79.79,0,0,0,.64.72c2.55.75,5,1.63,7.59,2.38,1.8.53,3.58,1.14,5.37,1.71a.93.93,0,0,1,.4.22,2.71,2.71,0,0,1-1-.24l-12.83-4c-.9-.28-.91-.29-.38-1.08A.92.92,0,0,1,241.07,106.7Z"/><path class="cls-6" d="M244.5,215.88a7,7,0,0,1-.52,1.61c-.12.31-.24.62-.35.93-.16.49-.14.52.43.72a1.05,1.05,0,0,1-.18.42c-.47.8-1,1.55-1.44,2.39-.05.09-.11.19-.21.21a.15.15,0,0,1-.1-.22q1.13-3,2.26-5.9A.57.57,0,0,1,244.5,215.88Z"/><path class="cls-4" d="M273.17,53.72a.58.58,0,0,1,.43.28c.17.28.35.57.53.84a.54.54,0,0,1-.05.73,1.13,1.13,0,0,0-.35.9c0,.31-.14.47-.45.36s-.53.07-.81,0c0-.35.35-.45.53-.65s.43-.51.12-.85c-.13-.14-.07-.26,0-.41.25-.43.23-.44-.24-.75l0-.13.1-.17Z"/><path class="cls-6" d="M255.42,112.29a9.51,9.51,0,0,1,2,.55c1.83.54,3.63,1.12,5.45,1.69a2.07,2.07,0,0,1,.77.35,18.3,18.3,0,0,1-2.4-.7c-1.78-.54-3.54-1.11-5.31-1.67A1,1,0,0,1,255.42,112.29Z"/><path class="cls-6" d="M300.89,9.37c-.07-.29.09-.55.11-.84,0-.1,0-.23-.09-.28a.23.23,0,0,0-.28.12c-.19.3-.37.6-.56.89s-.17.31-.35.38a20.17,20.17,0,0,1,1.88-3A15.42,15.42,0,0,1,300.89,9.37Z"/><path class="cls-6" d="M247.68,207.49a6.57,6.57,0,0,1-.59,1.82c-.28.81-.61,1.61-.92,2.41a.42.42,0,0,1-.18.27,6.65,6.65,0,0,1,.52-1.56A31,31,0,0,1,247.68,207.49Z"/><path class="cls-6" d="M264.6,163.17a4.26,4.26,0,0,1-.46,1.44c-.31.88-.65,1.74-1,2.61a.81.81,0,0,1-.27.45,4.75,4.75,0,0,1,.49-1.43C263.78,165.21,264.12,164.16,264.6,163.17Z"/><path class="cls-6" d="M249.27,203.35a13.83,13.83,0,0,1-.83,2.42,4.27,4.27,0,0,1-.58,1.31,17.71,17.71,0,0,1,.9-2.53A4.1,4.1,0,0,1,249.27,203.35Z"/><path class="cls-6" d="M291.18,44.62a3.23,3.23,0,0,1,.23-1.15,19.76,19.76,0,0,1,.72-2.38,3.54,3.54,0,0,1-.26,1.21A18.72,18.72,0,0,1,291.18,44.62Z"/><path class="cls-6" d="M265.14,115.36a14.87,14.87,0,0,1,3.12,1A17.93,17.93,0,0,1,265.14,115.36Z"/><path class="cls-6" d="M261,172.62a10.37,10.37,0,0,1-1,2.75A12.83,12.83,0,0,1,261,172.62Z"/><path class="cls-6" d="M251.9,196.48a5.22,5.22,0,0,1-.54,1.6c-.13.34-.13.75-.45,1A12.22,12.22,0,0,1,251.9,196.48Z"/><path class="cls-6" d="M253.27,192.84a8.08,8.08,0,0,1-.88,2.39A10.24,10.24,0,0,1,253.27,192.84Z"/><path class="cls-6" d="M278.69,126.27a7.8,7.8,0,0,1-.9,2.38A12,12,0,0,1,278.69,126.27Z"/><path class="cls-6" d="M277.11,130.42a7,7,0,0,1-.9,2.36A13.49,13.49,0,0,1,277.11,130.42Z"/><path class="cls-4" d="M273.91,52.5c.16,0,.29.11.26.31-.07.62-.2.71-.92.65a1.59,1.59,0,0,1,.28-.55C273.74,52.85,273.79,52.65,273.91,52.5Z"/><path class="cls-6" d="M254.35,190.06a8.66,8.66,0,0,1-.9,2.36A10.08,10.08,0,0,1,254.35,190.06Z"/><path class="cls-6" d="M244.26,101.39a4.55,4.55,0,0,1-1.1,1.84A8.79,8.79,0,0,1,244.26,101.39Z"/><path class="cls-6" d="M242.21,104.82a4,4,0,0,1-1.06,1.73A7.88,7.88,0,0,1,242.21,104.82Z"/><path class="cls-6" d="M250.22,200.83a1.1,1.1,0,0,1-.18.75,5.87,5.87,0,0,1-.6,1.36A9.22,9.22,0,0,1,250.22,200.83Z"/><path class="cls-6" d="M299.3,15.08a6.35,6.35,0,0,1,.6-2.09A7.59,7.59,0,0,1,299.3,15.08Z"/><path class="cls-6" d="M245.65,212.86a5.51,5.51,0,0,1-.73,1.93A6.63,6.63,0,0,1,245.65,212.86Z"/><path class="cls-6" d="M255.26,187.65a5.86,5.86,0,0,1-.74,2A7.39,7.39,0,0,1,255.26,187.65Z"/><path class="cls-6" d="M253.42,86.21a3.49,3.49,0,0,1-.95,1.57A6.27,6.27,0,0,1,253.42,86.21Z"/><path class="cls-6" d="M288.64,53.81a4.43,4.43,0,0,1,.49-1.78A5.74,5.74,0,0,1,288.64,53.81Z"/><path class="cls-6" d="M293.17,37.43a3.49,3.49,0,0,1,.43-1.67A5.34,5.34,0,0,1,293.17,37.43Z"/><path class="cls-6" d="M271.52,145.06a4.7,4.7,0,0,1-.63,1.71A5.26,5.26,0,0,1,271.52,145.06Z"/><path class="cls-6" d="M282.34,76.38c.22-.47.19-1,.5-1.47a4.23,4.23,0,0,1-.51,1.73Z"/><path class="cls-6" d="M280.16,122.43a4.16,4.16,0,0,1-.62,1.7A6.42,6.42,0,0,1,280.16,122.43Z"/><path class="cls-6" d="M259.67,176.08a4.17,4.17,0,0,1-.63,1.7A6,6,0,0,1,259.67,176.08Z"/><path class="cls-6" d="M270,148.92a4.64,4.64,0,0,1-.62,1.7A5.52,5.52,0,0,1,270,148.92Z"/><path class="cls-6" d="M294.37,33a4.24,4.24,0,0,1,.45-1.67A5.11,5.11,0,0,1,294.37,33Z"/><path class="cls-6" d="M290.36,47.56a4.87,4.87,0,0,1,.45-1.68A4.46,4.46,0,0,1,290.36,47.56Z"/><path class="cls-6" d="M286.77,60.61a4.3,4.3,0,0,1,.46-1.68A4.88,4.88,0,0,1,286.77,60.61Z"/><path class="cls-6" d="M280.91,81.9a4.42,4.42,0,0,1,.45-1.67A4.61,4.61,0,0,1,280.91,81.9Z"/><path class="cls-6" d="M296.11,26.66a3.32,3.32,0,0,1,.45-1.54A4.41,4.41,0,0,1,296.11,26.66Z"/><path class="cls-6" d="M245.41,99.49a2.82,2.82,0,0,1-.79,1.34A4.13,4.13,0,0,1,245.41,99.49Z"/><path class="cls-6" d="M293.75,19.51a2.75,2.75,0,0,1-.8,1.31A4,4,0,0,1,293.75,19.51Z"/><path class="cls-6" d="M274.82,118.41a3.67,3.67,0,0,1,1.54.49A4.62,4.62,0,0,1,274.82,118.41Z"/><path class="cls-6" d="M277.14,47a1.9,1.9,0,0,1-.7,1.16A3.14,3.14,0,0,1,277.14,47Z"/><path class="cls-6" d="M258.87,178.21a2.26,2.26,0,0,1-.49,1.3A3.22,3.22,0,0,1,258.87,178.21Z"/><path class="cls-6" d="M262.09,71.83a1.8,1.8,0,0,1-.7,1.17A4.09,4.09,0,0,1,262.09,71.83Z"/><path class="cls-6" d="M243.07,103.38a1.8,1.8,0,0,1-.72,1.17A3.74,3.74,0,0,1,243.07,103.38Z"/><path class="cls-6" d="M279.13,43.63a1.76,1.76,0,0,1-.69,1.15A4.09,4.09,0,0,1,279.13,43.63Z"/><path class="cls-6" d="M257.8,181a2.52,2.52,0,0,1-.49,1.3A3.08,3.08,0,0,1,257.8,181Z"/><path class="cls-6" d="M256.21,185.13a2.15,2.15,0,0,1-.48,1.31A3.91,3.91,0,0,1,256.21,185.13Z"/><path class="cls-6" d="M292.7,21.25a2.25,2.25,0,0,1-.7,1.15A2.9,2.9,0,0,1,292.7,21.25Z"/><path class="cls-6" d="M265.27,161.44a2.56,2.56,0,0,1-.49,1.3A3.54,3.54,0,0,1,265.27,161.44Z"/><path class="cls-6" d="M268.72,152.38a2.42,2.42,0,0,1-.49,1.31A4.71,4.71,0,0,1,268.72,152.38Z"/><path class="cls-6" d="M275.23,135.33a2.69,2.69,0,0,1-.49,1.31A3.65,3.65,0,0,1,275.23,135.33Z"/><path class="cls-6" d="M279.85,85.76a2.23,2.23,0,0,1,.31-1.13A2.26,2.26,0,0,1,279.85,85.76Z"/><path class="cls-6" d="M284.24,69.79a2.06,2.06,0,0,1,.32-1.13A2.5,2.5,0,0,1,284.24,69.79Z"/><path class="cls-6" d="M283.58,72.18a2.23,2.23,0,0,1,.31-1.13A2.16,2.16,0,0,1,283.58,72.18Z"/><path class="cls-4" d="M284.86,67.21a1.26,1.26,0,0,1-.24-.22.25.25,0,0,1,0-.36c.14-.11.24,0,.34.09s0,.1.07.14l-.1.31A.18.18,0,0,0,284.86,67.21Z"/><path class="cls-6" d="M294.9,31.06a2,2,0,0,1,.32-1.15A2.45,2.45,0,0,1,294.9,31.06Z"/><path class="cls-6" d="M283.19,73.64a2.15,2.15,0,0,1,.3-1.13A2.33,2.33,0,0,1,283.19,73.64Z"/><path class="cls-6" d="M293.7,35.44A2.27,2.27,0,0,1,294,34.3,2.32,2.32,0,0,1,293.7,35.44Z"/><path class="cls-6" d="M294.71,17.92a1.26,1.26,0,0,1-.56.9A2.35,2.35,0,0,1,294.71,17.92Z"/><path class="cls-6" d="M296.56,14.85a1.17,1.17,0,0,1-.55.91A2.58,2.58,0,0,1,296.56,14.85Z"/><path class="cls-6" d="M273.91,52.5c-.12.15-.17.35-.38.41a2.17,2.17,0,0,1,.54-.9A1.23,1.23,0,0,1,273.91,52.5Z"/><path class="cls-6" d="M257,80.22a1.25,1.25,0,0,1-.54.91A2.42,2.42,0,0,1,257,80.22Z"/><path class="cls-6" d="M252.24,88.21a1.41,1.41,0,0,1-.57.9A2,2,0,0,1,252.24,88.21Z"/><path class="cls-6" d="M287,30.7a1.47,1.47,0,0,1-.55.9A1.73,1.73,0,0,1,287,30.7Z"/><path class="cls-6" d="M251.85,206.27a1.54,1.54,0,0,1,.54-.89A1.65,1.65,0,0,1,251.85,206.27Z"/><path class="cls-6" d="M298.42,11.78a1.32,1.32,0,0,1-.56.92A2.18,2.18,0,0,1,298.42,11.78Z"/><path class="cls-6" d="M251.18,89.94a1.27,1.27,0,0,1-.56.91A2.32,2.32,0,0,1,251.18,89.94Z"/><path class="cls-6" d="M269.41,59.72a1.36,1.36,0,0,1-.55.91A2,2,0,0,1,269.41,59.72Z"/><path class="cls-6" d="M292.79,38.76a1.63,1.63,0,0,1,.27-1A1.92,1.92,0,0,1,292.79,38.76Z"/><path class="cls-6" d="M269.24,151a1.34,1.34,0,0,1-.33.92A1.48,1.48,0,0,1,269.24,151Z"/><path class="cls-6" d="M273.51,139.86a1.26,1.26,0,0,1-.36.92A2.17,2.17,0,0,1,273.51,139.86Z"/><path class="cls-6" d="M274.16,138.12a1.26,1.26,0,0,1-.33.93A2,2,0,0,1,274.16,138.12Z"/><path class="cls-6" d="M250.74,199.49a1.28,1.28,0,0,1-.34.93A2,2,0,0,1,250.74,199.49Z"/><path class="cls-6" d="M245.18,217.31a.9.9,0,0,1,.43-.73A1.34,1.34,0,0,1,245.18,217.31Z"/><path class="cls-6" d="M259,76.91a1,1,0,0,1-.44.74A1.24,1.24,0,0,1,259,76.91Z"/><path class="cls-6" d="M257.84,78.9a1,1,0,0,1-.45.75A1.33,1.33,0,0,1,257.84,78.9Z"/><path class="cls-6" d="M249.06,210.93a.94.94,0,0,1,.42-.74A1.66,1.66,0,0,1,249.06,210.93Z"/><path class="cls-6" d="M250.11,91.67a1,1,0,0,1-.44.76A1.71,1.71,0,0,1,250.11,91.67Z"/><path class="cls-6" d="M284.86,34.17a1.09,1.09,0,0,1-.44.76A1.37,1.37,0,0,1,284.86,34.17Z"/><path class="cls-6" d="M298.09,19.48a1,1,0,0,1,.21-.75A1,1,0,0,1,298.09,19.48Z"/><path class="cls-6" d="M297.8,20.59a1,1,0,0,1,.21-.8A1.34,1.34,0,0,1,297.8,20.59Z"/><path class="cls-6" d="M283.92,35.76a.74.74,0,0,1-.41.64A1.17,1.17,0,0,1,283.92,35.76Z"/><path class="cls-6" d="M268.7,60.9a.69.69,0,0,1-.39.64A1.19,1.19,0,0,1,268.7,60.9Z"/><path class="cls-6" d="M297.62,13.12a.75.75,0,0,1-.4.66A1.17,1.17,0,0,1,297.62,13.12Z"/><path class="cls-6" d="M264.85,67.29a.74.74,0,0,1-.4.65A1.06,1.06,0,0,1,264.85,67.29Z"/><path class="cls-6" d="M281.71,79a1.06,1.06,0,0,1,.21-.73A1,1,0,0,1,281.71,79Z"/><path class="cls-6" d="M290,49a.87.87,0,0,1,.18-.74A1.14,1.14,0,0,1,290,49Z"/><path class="cls-6" d="M271,117.2a.71.71,0,0,1,.65.18A.77.77,0,0,1,271,117.2Z"/><path class="cls-6" d="M268.05,154.12a.57.57,0,0,1-.22.63A1,1,0,0,1,268.05,154.12Z"/><path class="cls-6" d="M298.76,17.08a.76.76,0,0,1,.17-.63A.83.83,0,0,1,298.76,17.08Z"/><path class="cls-6" d="M289.7,50a.8.8,0,0,1,.17-.61A.72.72,0,0,1,289.7,50Z"/><path class="cls-6" d="M270.7,147.18a.65.65,0,0,1-.22.64A1.05,1.05,0,0,1,270.7,147.18Z"/><path class="cls-6" d="M284.86,67.21a.18.18,0,0,1,.09,0,.77.77,0,0,1-.16.62C284.7,67.58,284.86,67.41,284.86,67.21Z"/><path class="cls-6" d="M258.2,179.94a.71.71,0,0,1-.22.63A.9.9,0,0,1,258.2,179.94Z"/><path class="cls-6" d="M264,68.76c0,.24-.05.43-.29.51A.76.76,0,0,1,264,68.76Z"/><path class="cls-6" d="M261.66,170.88a.7.7,0,0,1-.22.64A.94.94,0,0,1,261.66,170.88Z"/><path class="cls-6" d="M257.13,182.73a.72.72,0,0,1-.22.65A1,1,0,0,1,257.13,182.73Z"/><path class="cls-6" d="M271.93,117.5a.57.57,0,0,1,.59.18A.79.79,0,0,1,271.93,117.5Z"/><path class="cls-6" d="M280.52,83.36a.76.76,0,0,1,.17-.6A.82.82,0,0,1,280.52,83.36Z"/><path class="cls-6" d="M266.58,158a.7.7,0,0,1-.22.64A1,1,0,0,1,266.58,158Z"/><path class="cls-6" d="M267.65,155.18a.76.76,0,0,1-.21.64A.92.92,0,0,1,267.65,155.18Z"/><path class="cls-6" d="M286,63.39a.67.67,0,0,1,.17-.6A.76.76,0,0,1,286,63.39Z"/><path class="cls-6" d="M256.74,183.79a.74.74,0,0,1-.24.64A1,1,0,0,1,256.74,183.79Z"/><path class="cls-6" d="M288.39,54.74a.62.62,0,0,1,.16-.61A.82.82,0,0,1,288.39,54.74Z"/><path class="cls-6" d="M279.6,86.69a.64.64,0,0,1,.16-.6A.77.77,0,0,1,279.6,86.69Z"/><path class="cls-6" d="M267,156.91a.74.74,0,0,1-.25.64A1.06,1.06,0,0,1,267,156.91Z"/><path class="cls-6" d="M279.1,125.23a.74.74,0,0,1-.22.63A1,1,0,0,1,279.1,125.23Z"/><path class="cls-6" d="M286.25,62.46a.66.66,0,0,1,.17-.6A.76.76,0,0,1,286.25,62.46Z"/><path class="cls-6" d="M287.32,58.6a.64.64,0,0,1,.16-.6A.72.72,0,0,1,287.32,58.6Z"/><path class="cls-6" d="M286.52,61.53a.72.72,0,0,1,.16-.6A.72.72,0,0,1,286.52,61.53Z"/><path class="cls-6" d="M262.06,169.83a.69.69,0,0,1-.22.63A.9.9,0,0,1,262.06,169.83Z"/><path class="cls-6" d="M280.57,121.37a.74.74,0,0,1-.22.63A1,1,0,0,1,280.57,121.37Z"/><path class="cls-6" d="M276,133.2a.76.76,0,0,1-.24.66A1.21,1.21,0,0,1,276,133.2Z"/><path class="cls-6" d="M295.57,28.65a.7.7,0,0,1,.17-.61A.79.79,0,0,1,295.57,28.65Z"/><path class="cls-6" d="M275.62,134.27a.69.69,0,0,1-.21.65A1,1,0,0,1,275.62,134.27Z"/><path class="cls-6" d="M285.44,65.44a.85.85,0,0,1,.17-.65A.85.85,0,0,1,285.44,65.44Z"/><path class="cls-6" d="M284,70.72a.67.67,0,0,1,.16-.61A.75.75,0,0,1,284,70.72Z"/><path class="cls-6" d="M263.16,70.09a.44.44,0,0,1-.31.51A.9.9,0,0,1,263.16,70.09Z"/><path class="cls-6" d="M274.57,137.06a.74.74,0,0,1-.23.65A1,1,0,0,1,274.57,137.06Z"/><path class="cls-6" d="M296.9,23.86a.73.73,0,0,1,.16-.62A.8.8,0,0,1,296.9,23.86Z"/><path class="cls-6" d="M300.23,11.76a.7.7,0,0,1,.17-.63A.89.89,0,0,1,300.23,11.76Z"/><path class="cls-6" d="M297.56,21.47a.59.59,0,0,1,.16-.58A.75.75,0,0,1,297.56,21.47Z"/><path class="cls-6" d="M272.58,142.26a.72.72,0,0,1-.22.64A.94.94,0,0,1,272.58,142.26Z"/><path class="cls-6" d="M272.18,143.32a.78.78,0,0,1-.22.65A.88.88,0,0,1,272.18,143.32Z"/><path class="cls-6" d="M281.81,39.24a.58.58,0,0,1-.31.48A.61.61,0,0,1,281.81,39.24Z"/><path class="cls-6" d="M268.21,61.71a.5.5,0,0,1-.3.5A.84.84,0,0,1,268.21,61.71Z"/><path class="cls-6" d="M271,57.07a.58.58,0,0,1-.3.5A.64.64,0,0,1,271,57.07Z"/><path class="cls-6" d="M282.2,38.57a.46.46,0,0,1-.28.5A.71.71,0,0,1,282.2,38.57Z"/><path class="cls-4" d="M282.34,76.38v.26l0,.12c-.13,0-.34,0-.31-.2S282.19,76.39,282.34,76.38Z"/><path class="cls-6" d="M270.48,175.52a.51.51,0,0,1,.28-.47A.65.65,0,0,1,270.48,175.52Z"/><path class="cls-6" d="M260.24,192.43a.51.51,0,0,1,.28-.48A.64.64,0,0,1,260.24,192.43Z"/><path class="cls-6" d="M282.85,37.5a.5.5,0,0,1-.28.49A.69.69,0,0,1,282.85,37.5Z"/><path class="cls-6" d="M260.1,75.15a.54.54,0,0,1-.3.52A.82.82,0,0,1,260.1,75.15Z"/><path class="cls-6" d="M248.12,95a.53.53,0,0,1-.3.5A.73.73,0,0,1,248.12,95Z"/><path class="cls-6" d="M267.15,63.46a.54.54,0,0,1-.29.5A.72.72,0,0,1,267.15,63.46Z"/><path class="cls-6" d="M267.43,180.58a.5.5,0,0,1,.27-.48A.69.69,0,0,1,267.43,180.58Z"/><path class="cls-6" d="M246.52,97.66a.53.53,0,0,1-.31.5A.75.75,0,0,1,246.52,97.66Z"/><path class="cls-6" d="M275.92,48.94a.5.5,0,0,1-.29.5A.74.74,0,0,1,275.92,48.94Z"/><path class="cls-6" d="M254.23,84.87a.51.51,0,0,1-.3.51A.79.79,0,0,1,254.23,84.87Z"/><path class="cls-6" d="M255.32,200.56a.46.46,0,0,1,.29-.48A.83.83,0,0,1,255.32,200.56Z"/><path class="cls-6" d="M285.92,32.43a.54.54,0,0,1-.29.51A.74.74,0,0,1,285.92,32.43Z"/><path class="cls-6" d="M295.11,17.27a.56.56,0,0,1-.3.49A.62.62,0,0,1,295.11,17.27Z"/><path class="cls-6" d="M265.29,66.52a.56.56,0,0,1-.28.5A.63.63,0,0,1,265.29,66.52Z"/><path class="cls-6" d="M275.53,49.6a.49.49,0,0,1-.3.5A.71.71,0,0,1,275.53,49.6Z"/><path class="cls-6" d="M259.69,75.83a.54.54,0,0,1-.29.5A.64.64,0,0,1,259.69,75.83Z"/><path class="cls-6" d="M274.73,50.93a.51.51,0,0,1-.3.5A.68.68,0,0,1,274.73,50.93Z"/><path class="cls-6" d="M277.62,129.08a.54.54,0,0,1-.18.52A.59.59,0,0,1,277.62,129.08Z"/><path class="cls-6" d="M256.23,81.55a.53.53,0,0,1-.29.51A.78.78,0,0,1,256.23,81.55Z"/><path class="cls-6" d="M287.53,29.79a.54.54,0,0,1-.31.48A.64.64,0,0,1,287.53,29.79Z"/><path class="cls-6" d="M253.71,203.21a.5.5,0,0,1,.31-.47A.72.72,0,0,1,253.71,203.21Z"/><path class="cls-6" d="M264.5,185.38a.46.46,0,0,1,.29-.47A.76.76,0,0,1,264.5,185.38Z"/><path class="cls-6" d="M268.6,116.43c.2-.08.33,0,.47.16A.47.47,0,0,1,268.6,116.43Z"/><path class="cls-6" d="M253.32,203.88a.51.51,0,0,1,.28-.49A.76.76,0,0,1,253.32,203.88Z"/><path class="cls-6" d="M288.57,28a.53.53,0,0,1-.28.5A.68.68,0,0,1,288.57,28Z"/><path class="cls-6" d="M266.36,64.79a.52.52,0,0,1-.3.49A.71.71,0,0,1,266.36,64.79Z"/><path class="cls-6" d="M251.58,89.27a.53.53,0,0,1-.31.5A.72.72,0,0,1,251.58,89.27Z"/><path class="cls-6" d="M275.13,50.27a.48.48,0,0,1-.3.49A.79.79,0,0,1,275.13,50.27Z"/><path class="cls-6" d="M289.78,26a.57.57,0,0,1-.29.51A.69.69,0,0,1,289.78,26Z"/><path class="cls-6" d="M247.33,96.33a.54.54,0,0,1-.32.5A.77.77,0,0,1,247.33,96.33Z"/><path class="cls-6" d="M272.07,55.33a.48.48,0,0,1-.3.49A.84.84,0,0,1,272.07,55.33Z"/><path class="cls-6" d="M267.82,179.92a.53.53,0,0,1,.29-.48A.68.68,0,0,1,267.82,179.92Z"/><path class="cls-6" d="M299.63,9.8a.52.52,0,0,1-.31.5A.76.76,0,0,1,299.63,9.8Z"/><path class="cls-6" d="M247.19,214a.51.51,0,0,1,.29-.47A.66.66,0,0,1,247.19,214Z"/><path class="cls-6" d="M295.5,16.59a.54.54,0,0,1-.29.5A.72.72,0,0,1,295.5,16.59Z"/><path class="cls-6" d="M251.05,207.62a.51.51,0,0,1,.29-.49A.7.7,0,0,1,251.05,207.62Z"/><path class="cls-6" d="M281.26,40.16a.52.52,0,0,1-.31.49A.66.66,0,0,1,281.26,40.16Z"/><path class="cls-6" d="M248.91,93.67a.53.53,0,0,1-.3.5A.75.75,0,0,1,248.91,93.67Z"/><path class="cls-6" d="M263.56,69.44a.51.51,0,0,1-.31.5A.69.69,0,0,1,263.56,69.44Z"/><path class="cls-6" d="M246.92,97a.55.55,0,0,1-.3.52A.78.78,0,0,1,246.92,97Z"/><path class="cls-6" d="M269.91,58.91a.33.33,0,0,1-.25.38A.48.48,0,0,1,269.91,58.91Z"/><path class="cls-6" d="M291.35,23.5a.33.33,0,0,1-.25.38A.48.48,0,0,1,291.35,23.5Z"/><path class="cls-6" d="M280.12,89.6a.36.36,0,0,1-.35-.28A.44.44,0,0,1,280.12,89.6Z"/><path class="cls-6" d="M245.81,98.83c0,.22-.08.33-.26.41A.63.63,0,0,1,245.81,98.83Z"/><path class="cls-6" d="M297.07,14a.35.35,0,0,1-.26.39A.56.56,0,0,1,297.07,14Z"/><path class="cls-6" d="M265.65,66a.34.34,0,0,1-.25.39A.55.55,0,0,1,265.65,66Z"/><path class="cls-6" d="M287.57,57.68a.24.24,0,0,1,.08-.34A.35.35,0,0,1,287.57,57.68Z"/><path class="cls-6" d="M285.05,66.86s-.05-.09-.07-.14l.15-.18A.34.34,0,0,1,285.05,66.86Z"/><path class="cls-4" d="M271.65,56.21c.06,0,.15.11.09.19s-.18,0-.27,0l0-.16Z"/><path class="cls-6" d="M257.32,197.23a.16.16,0,0,1,.15-.21A.24.24,0,0,1,257.32,197.23Z"/><path class="cls-6" d="M298.83,11.13c0,.12,0,.21-.16.24A.27.27,0,0,1,298.83,11.13Z"/><path class="cls-6" d="M256.77,198.15a.18.18,0,0,1,.14-.22A.22.22,0,0,1,256.77,198.15Z"/><path class="cls-6" d="M300.08,12.3a.16.16,0,0,1,.06-.24A.22.22,0,0,1,300.08,12.3Z"/><path class="cls-6" d="M256.11,199.22a.17.17,0,0,1,.15-.21A.23.23,0,0,1,256.11,199.22Z"/><path class="cls-6" d="M255.73,199.9c0-.12,0-.19.13-.22A.22.22,0,0,1,255.73,199.9Z"/><path class="cls-6" d="M254.92,201.22a.17.17,0,0,1,.14-.21A.22.22,0,0,1,254.92,201.22Z"/><path class="cls-6" d="M254.52,201.89a.2.2,0,0,1,.14-.23A.24.24,0,0,1,254.52,201.89Z"/><path class="cls-6" d="M254.26,202.29a.17.17,0,0,1,.14-.22A.23.23,0,0,1,254.26,202.29Z"/><path class="cls-6" d="M299,16.15a.15.15,0,0,1,.05-.23A.2.2,0,0,1,299,16.15Z"/><path class="cls-6" d="M295.76,16.19a.2.2,0,0,1-.15.24A.27.27,0,0,1,295.76,16.19Z"/><path class="cls-6" d="M252.5,205.2a.19.19,0,0,1,.15-.21A.2.2,0,0,1,252.5,205.2Z"/><path class="cls-6" d="M267.25,156.24a.18.18,0,0,1-.09.24A.21.21,0,0,1,267.25,156.24Z"/><path class="cls-6" d="M297.4,22.05a.25.25,0,0,1,.06-.27A.23.23,0,0,1,297.4,22.05Z"/><path class="cls-6" d="M291.88,22.58c0,.12,0,.19-.13.22A.22.22,0,0,1,291.88,22.58Z"/><path class="cls-6" d="M297.15,22.94a.16.16,0,0,1,.06-.23A.2.2,0,0,1,297.15,22.94Z"/><path class="cls-6" d="M290.85,24.31a.22.22,0,0,1-.15.24A.24.24,0,0,1,290.85,24.31Z"/><path class="cls-6" d="M296.63,24.8c-.06-.1,0-.17.07-.22A.21.21,0,0,1,296.63,24.8Z"/><path class="cls-6" d="M290.59,24.73a.2.2,0,0,1-.15.22A.19.19,0,0,1,290.59,24.73Z"/><path class="cls-6" d="M290.28,25.23a.18.18,0,0,1-.13.24A.27.27,0,0,1,290.28,25.23Z"/><path class="cls-6" d="M290,25.65a.19.19,0,0,1-.15.23A.23.23,0,0,1,290,25.65Z"/><path class="cls-6" d="M289.39,26.72a.21.21,0,0,1-.16.23A.22.22,0,0,1,289.39,26.72Z"/><path class="cls-6" d="M296,27.2c-.06-.1,0-.17.07-.22A.17.17,0,0,1,296,27.2Z"/><path class="cls-6" d="M289.07,27.22a.17.17,0,0,1-.13.24A.27.27,0,0,1,289.07,27.22Z"/><path class="cls-6" d="M288.83,27.64a.18.18,0,0,1-.14.23A.21.21,0,0,1,288.83,27.64Z"/><path class="cls-6" d="M288.18,28.71A.2.2,0,0,1,288,29,.24.24,0,0,1,288.18,28.71Z"/><path class="cls-6" d="M287.77,29.36a.2.2,0,0,1-.14.25A.29.29,0,0,1,287.77,29.36Z"/><path class="cls-6" d="M295.31,29.59c-.07-.09,0-.16.06-.21A.18.18,0,0,1,295.31,29.59Z"/><path class="cls-6" d="M266.18,159a.18.18,0,0,1-.07.24A.19.19,0,0,1,266.18,159Z"/><path class="cls-6" d="M250.81,208c0-.12,0-.2.14-.22A.26.26,0,0,1,250.81,208Z"/><path class="cls-6" d="M286.17,32a.19.19,0,0,1-.15.23A.22.22,0,0,1,286.17,32Z"/><path class="cls-6" d="M285.52,33.11a.19.19,0,0,1-.15.22A.22.22,0,0,1,285.52,33.11Z"/><path class="cls-6" d="M294.21,33.58c-.06-.09,0-.16.06-.22A.19.19,0,0,1,294.21,33.58Z"/><path class="cls-6" d="M265.78,160.1a.18.18,0,0,1-.09.24A.22.22,0,0,1,265.78,160.1Z"/><path class="cls-6" d="M250.25,209a.21.21,0,0,1,.14-.24A.23.23,0,0,1,250.25,209Z"/><path class="cls-6" d="M250,209.35a.19.19,0,0,1,.14-.23A.25.25,0,0,1,250,209.35Z"/><path class="cls-6" d="M265.52,160.77a.17.17,0,0,1-.07.24A.19.19,0,0,1,265.52,160.77Z"/><path class="cls-6" d="M283.35,36.68a.17.17,0,0,1-.14.23A.27.27,0,0,1,283.35,36.68Z"/><path class="cls-6" d="M283.09,37.08a.17.17,0,0,1-.13.23A.24.24,0,0,1,283.09,37.08Z"/><path class="cls-6" d="M249.6,210a.17.17,0,0,1,.14-.22A.22.22,0,0,1,249.6,210Z"/><path class="cls-6" d="M282.45,38.16a.19.19,0,0,1-.14.23A.23.23,0,0,1,282.45,38.16Z"/><path class="cls-6" d="M292.64,39.3a.12.12,0,0,1,0-.2A.16.16,0,0,1,292.64,39.3Z"/><path class="cls-6" d="M292.49,39.83c-.06-.09,0-.15.05-.21A.17.17,0,0,1,292.49,39.83Z"/><path class="cls-6" d="M292.23,40.76c-.06-.08,0-.15,0-.2A.16.16,0,0,1,292.23,40.76Z"/><path class="cls-6" d="M280.85,40.81a.19.19,0,0,1-.14.24A.24.24,0,0,1,280.85,40.81Z"/><path class="cls-6" d="M248.79,211.34a.2.2,0,0,1,.15-.23A.24.24,0,0,1,248.79,211.34Z"/><path class="cls-6" d="M279.79,42.55a.2.2,0,0,1-.15.24A.25.25,0,0,1,279.79,42.55Z"/><path class="cls-6" d="M279.4,43.22a.19.19,0,0,1-.15.23A.23.23,0,0,1,279.4,43.22Z"/><path class="cls-6" d="M248.4,212a.18.18,0,0,1,.14-.23A.25.25,0,0,1,248.4,212Z"/><path class="cls-6" d="M277,164.73a.18.18,0,0,1,.13-.21A.21.21,0,0,1,277,164.73Z"/><path class="cls-6" d="M278.19,45.21a.19.19,0,0,1-.14.24A.23.23,0,0,1,278.19,45.21Z"/><path class="cls-6" d="M248.14,212.41a.17.17,0,0,1,.14-.22A.24.24,0,0,1,248.14,212.41Z"/><path class="cls-6" d="M276.62,165.41a.18.18,0,0,1,.11-.23A.21.21,0,0,1,276.62,165.41Z"/><path class="cls-6" d="M277.39,46.54a.2.2,0,0,1-.16.23A.25.25,0,0,1,277.39,46.54Z"/><path class="cls-6" d="M276.37,165.8a.14.14,0,0,1,.12-.2A.19.19,0,0,1,276.37,165.8Z"/><path class="cls-6" d="M247.59,213.32a.18.18,0,0,1,.14-.21A.2.2,0,0,1,247.59,213.32Z"/><path class="cls-6" d="M275.81,166.73a.18.18,0,0,1,.12-.21A.19.19,0,0,1,275.81,166.73Z"/><path class="cls-6" d="M246.93,214.4a.18.18,0,0,1,.14-.22A.22.22,0,0,1,246.93,214.4Z"/><path class="cls-6" d="M275.55,167.13a.17.17,0,0,1,.12-.21A.19.19,0,0,1,275.55,167.13Z"/><path class="cls-6" d="M246.53,215.07a.18.18,0,0,1,.14-.22A.2.2,0,0,1,246.53,215.07Z"/><path class="cls-6" d="M289.44,50.88c-.06-.08,0-.15.05-.21A.16.16,0,0,1,289.44,50.88Z"/><path class="cls-6" d="M289.3,51.42a.14.14,0,0,1,0-.21A.16.16,0,0,1,289.3,51.42Z"/><path class="cls-6" d="M244.74,215.2a.18.18,0,0,1-.08.26A.25.25,0,0,1,244.74,215.2Z"/><path class="cls-6" d="M246.13,215.75a.21.21,0,0,1,.14-.24A.27.27,0,0,1,246.13,215.75Z"/><path class="cls-6" d="M262.73,168.08a.19.19,0,0,1-.09.25A.23.23,0,0,1,262.73,168.08Z"/><path class="cls-6" d="M273.17,53.72l-.2.11a.26.26,0,0,1,.16-.23A.56.56,0,0,1,273.17,53.72Z"/><path class="cls-6" d="M274.76,168.46a.16.16,0,0,1,.12-.21A.21.21,0,0,1,274.76,168.46Z"/><path class="cls-6" d="M245.89,216.15a.18.18,0,0,1,.14-.23A.24.24,0,0,1,245.89,216.15Z"/><path class="cls-6" d="M272.87,54l0,.13-.18.11A.23.23,0,0,1,272.87,54Z"/><path class="cls-6" d="M272.48,54.67a.21.21,0,0,1-.15.24A.21.21,0,0,1,272.48,54.67Z"/><path class="cls-6" d="M288.23,55.33a.2.2,0,0,1,.06-.26A.22.22,0,0,1,288.23,55.33Z"/><path class="cls-6" d="M271.65,56.21l-.14,0a.23.23,0,0,1,.15-.23C271.66,56.07,271.65,56.14,271.65,56.21Z"/><path class="cls-6" d="M288,56.22a.14.14,0,0,1,0-.22A.18.18,0,0,1,288,56.22Z"/><path class="cls-6" d="M262.33,169.15a.18.18,0,0,1-.1.25A.24.24,0,0,1,262.33,169.15Z"/><path class="cls-6" d="M287.83,56.79a.22.22,0,0,1,.06-.26A.23.23,0,0,1,287.83,56.79Z"/><path class="cls-6" d="M271.26,56.66a.88.88,0,0,1,0,.17l-.16.06A.24.24,0,0,1,271.26,56.66Z"/><path class="cls-6" d="M273.94,169.79a.18.18,0,0,1,.14-.21A.2.2,0,0,1,273.94,169.79Z"/><path class="cls-6" d="M273.69,170.2c0-.11,0-.18.12-.21A.21.21,0,0,1,273.69,170.2Z"/><path class="cls-6" d="M270.22,58.39a.21.21,0,0,1-.15.25A.25.25,0,0,1,270.22,58.39Z"/><path class="cls-6" d="M244.27,218.8a.2.2,0,0,1,.14-.24A.26.26,0,0,1,244.27,218.8Z"/><path class="cls-6" d="M272.89,171.53a.18.18,0,0,1,.13-.22A.2.2,0,0,1,272.89,171.53Z"/><path class="cls-6" d="M267.8,62.38a.19.19,0,0,1-.15.24A.27.27,0,0,1,267.8,62.38Z"/><path class="cls-6" d="M267.41,63.05a.2.2,0,0,1-.15.24A.25.25,0,0,1,267.41,63.05Z"/><path class="cls-6" d="M261.25,171.94a.18.18,0,0,1-.08.25A.23.23,0,0,1,261.25,171.94Z"/><path class="cls-6" d="M266.76,64.12a.22.22,0,0,1-.15.24A.24.24,0,0,1,266.76,64.12Z"/><path class="cls-6" d="M285.71,64.46c-.06-.08,0-.15.05-.2A.15.15,0,0,1,285.71,64.46Z"/><path class="cls-6" d="M266,65.46a.2.2,0,0,1-.14.23A.21.21,0,0,1,266,65.46Z"/><path class="cls-6" d="M285.3,65.93a.12.12,0,0,1,.06-.18A.12.12,0,0,1,285.3,65.93Z"/><path class="cls-6" d="M272.08,172.86a.17.17,0,0,1,.14-.21A.19.19,0,0,1,272.08,172.86Z"/><path class="cls-6" d="M284.65,68.32c-.06-.08,0-.15.05-.2A.17.17,0,0,1,284.65,68.32Z"/><path class="cls-6" d="M264.2,68.36a.2.2,0,0,1-.15.25A.29.29,0,0,1,264.2,68.36Z"/><path class="cls-6" d="M270.89,174.85a.16.16,0,0,1,.12-.21A.19.19,0,0,1,270.89,174.85Z"/><path class="cls-6" d="M262.74,70.77a.19.19,0,0,1-.15.24A.27.27,0,0,1,262.74,70.77Z"/><path class="cls-6" d="M262.35,71.43a.2.2,0,0,1-.16.24A.28.28,0,0,1,262.35,71.43Z"/><path class="cls-6" d="M261.15,73.43a.2.2,0,0,1-.15.24A.27.27,0,0,1,261.15,73.43Z"/><path class="cls-6" d="M260.89,73.83a.22.22,0,0,1-.16.25A.28.28,0,0,1,260.89,73.83Z"/><path class="cls-6" d="M283,74.23a.19.19,0,0,1,.05-.25A.2.2,0,0,1,283,74.23Z"/><path class="cls-6" d="M260.5,74.5a.22.22,0,0,1-.15.25A.26.26,0,0,1,260.5,74.5Z"/><path class="cls-6" d="M269.42,177.25a.17.17,0,0,1,.13-.21A.2.2,0,0,1,269.42,177.25Z"/><path class="cls-6" d="M259.3,76.5a.21.21,0,0,1-.15.24A.23.23,0,0,1,259.3,76.5Z"/><path class="cls-6" d="M282.11,77.56a.21.21,0,0,1,.07-.26A.23.23,0,0,1,282.11,77.56Z"/><path class="cls-6" d="M258.49,77.83a.18.18,0,0,1-.15.23A.25.25,0,0,1,258.49,77.83Z"/><path class="cls-6" d="M258.09,78.48a.21.21,0,0,1-.15.25A.29.29,0,0,1,258.09,78.48Z"/><path class="cls-6" d="M269,177.92a.17.17,0,0,1,.14-.21A.22.22,0,0,1,269,177.92Z"/><path class="cls-6" d="M281.46,79.91c-.06-.09,0-.15.05-.2A.15.15,0,0,1,281.46,79.91Z"/><path class="cls-6" d="M257.29,79.82a.2.2,0,0,1-.15.24A.25.25,0,0,1,257.29,79.82Z"/><path class="cls-6" d="M255.83,82.22a.2.2,0,0,1-.15.24A.25.25,0,0,1,255.83,82.22Z"/><path class="cls-6" d="M280.78,82.44a.15.15,0,0,1,.05-.22A.18.18,0,0,1,280.78,82.44Z"/><path class="cls-6" d="M255.45,82.88a.23.23,0,0,1-.16.25A.25.25,0,0,1,255.45,82.88Z"/><path class="cls-6" d="M280.26,84.3c-.06-.08,0-.15.05-.2A.17.17,0,0,1,280.26,84.3Z"/><path class="cls-6" d="M254.64,84.21a.22.22,0,0,1-.16.24A.25.25,0,0,1,254.64,84.21Z"/><path class="cls-6" d="M279.46,87.22c-.07-.08,0-.14,0-.2A.15.15,0,0,1,279.46,87.22Z"/><path class="cls-6" d="M279.31,87.8a.19.19,0,0,1,.05-.25A.23.23,0,0,1,279.31,87.8Z"/><path class="cls-6" d="M279.29,89a.15.15,0,0,1-.15-.18A.2.2,0,0,1,279.29,89Z"/><path class="cls-6" d="M280.65,90c-.12,0-.19,0-.2-.17A.24.24,0,0,1,280.65,90Z"/><path class="cls-6" d="M281.18,90.4a.18.18,0,0,1-.21-.16A.24.24,0,0,1,281.18,90.4Z"/><path class="cls-6" d="M282.38,91.33a.19.19,0,0,1-.21-.17A.25.25,0,0,1,282.38,91.33Z"/><path class="cls-6" d="M250.38,91.26a.23.23,0,0,1-.17.25A.32.32,0,0,1,250.38,91.26Z"/><path class="cls-6" d="M283.59,92.24a.17.17,0,0,1-.22-.14A.22.22,0,0,1,283.59,92.24Z"/><path class="cls-6" d="M249.57,92.59a.2.2,0,0,1-.15.25A.29.29,0,0,1,249.57,92.59Z"/><path class="cls-6" d="M249.18,93.25a.22.22,0,0,1-.16.25A.33.33,0,0,1,249.18,93.25Z"/><path class="cls-6" d="M248.38,94.59a.23.23,0,0,1-.16.25A.25.25,0,0,1,248.38,94.59Z"/><path class="cls-6" d="M247.72,95.66a.24.24,0,0,1-.16.26A.3.3,0,0,1,247.72,95.66Z"/><path class="cls-6" d="M246.12,98.31a.24.24,0,0,1-.15.27A.29.29,0,0,1,246.12,98.31Z"/><path class="cls-6" d="M244.51,101a.19.19,0,0,1-.16.23A.28.28,0,0,1,244.51,101Z"/><path class="cls-6" d="M267.16,181c0-.12,0-.19.15-.21A.21.21,0,0,1,267.16,181Z"/><path class="cls-6" d="M269.75,116.83a.16.16,0,0,1,.24.06A.23.23,0,0,1,269.75,116.83Z"/><path class="cls-6" d="M273.48,118a.19.19,0,0,1,.24.06A.19.19,0,0,1,273.48,118Z"/><path class="cls-6" d="M277,119.09c.09-.06.15,0,.18.06A.14.14,0,0,1,277,119.09Z"/><path class="cls-6" d="M277.79,119.34a.12.12,0,0,1,.19.06A.15.15,0,0,1,277.79,119.34Z"/><path class="cls-6" d="M279,119.73a.18.18,0,0,1,.23.06A.18.18,0,0,1,279,119.73Z"/><path class="cls-6" d="M279.36,124.56a.17.17,0,0,1-.09.24A.22.22,0,0,1,279.36,124.56Z"/><path class="cls-6" d="M266,183a.18.18,0,0,1,.14-.21A.22.22,0,0,1,266,183Z"/><path class="cls-6" d="M265.57,183.65a.18.18,0,0,1,.12-.23A.22.22,0,0,1,265.57,183.65Z"/><path class="cls-6" d="M264.11,186.05a.18.18,0,0,1,.14-.22A.26.26,0,0,1,264.11,186.05Z"/><path class="cls-6" d="M255.51,187c.07.1,0,.15-.07.19A.15.15,0,0,1,255.51,187Z"/><path class="cls-6" d="M263.3,187.37a.19.19,0,0,1,.13-.23A.23.23,0,0,1,263.3,187.37Z"/><path class="cls-6" d="M262.9,188a.17.17,0,0,1,.14-.21A.2.2,0,0,1,262.9,188Z"/><path class="cls-6" d="M261.45,190.45c0-.12,0-.2.13-.23A.25.25,0,0,1,261.45,190.45Z"/><path class="cls-6" d="M261,191.1c0-.12,0-.19.15-.21A.23.23,0,0,1,261,191.1Z"/><path class="cls-6" d="M272.85,141.6a.18.18,0,0,1-.1.24A.23.23,0,0,1,272.85,141.6Z"/><path class="cls-6" d="M259.84,193.09a.17.17,0,0,1,.14-.21A.2.2,0,0,1,259.84,193.09Z"/><path class="cls-6" d="M259.45,193.76a.18.18,0,0,1,.13-.22A.23.23,0,0,1,259.45,193.76Z"/><path class="cls-6" d="M259.18,194.17a.18.18,0,0,1,.14-.22A.22.22,0,0,1,259.18,194.17Z"/><path class="cls-6" d="M271.78,144.38a.19.19,0,0,1-.1.26A.26.26,0,0,1,271.78,144.38Z"/><path class="cls-6" d="M300.74,10a.25.25,0,0,1,.06-.3A.3.3,0,0,1,300.74,10Z"/><path class="cls-6" d="M258.63,195.08a.18.18,0,0,1,.14-.21A.19.19,0,0,1,258.63,195.08Z"/><path class="cls-6" d="M252.21,195.64a.18.18,0,0,1-.09.24A.21.21,0,0,1,252.21,195.64Z"/><path class="cls-6" d="M258.15,195.9a.15.15,0,0,1,.12-.21A.21.21,0,0,1,258.15,195.9Z"/><path class="cls-6" d="M299.22,10.46a.21.21,0,0,1-.15.25A.27.27,0,0,1,299.22,10.46Z"/><path class="cls-6" d="M300.48,10.83a.17.17,0,0,1,.07-.24A.22.22,0,0,1,300.48,10.83Z"/><path class="cls-7" d="M238.2,114.7c.05,0,.12,0,.15.09a0,0,0,0,1-.06.06.75.75,0,0,1-.09-.15Z"/><path class="cls-8" d="M299.5,64.07l-.1.06s0-.08,0-.11.06,0,.1-.06Z"/><path class="cls-9" d="M293.07,84.12H293s0-.07,0-.08l0,0S293.07,84.1,293.07,84.12Z"/><polygon class="cls-10" points="270.41 203.36 270.39 203.38 270.41 203.36 270.41 203.36"/><path class="cls-4" d="M279.18,74.1c.57,0,.87.28.79.69,0,.2-.14.33-.36.29a1.53,1.53,0,0,1-.61-.24c-.19-.12-.36-.29-.27-.54S279,74.12,279.18,74.1Z"/><path class="cls-4" d="M274.86,66.8a.91.91,0,0,0,.11.58.46.46,0,0,1,0,.38c-.06.15-.16.27-.34.25a.27.27,0,0,1-.23-.28c-.05-.44.16-.86.05-1.31,0,0,.08-.1.14-.11a.21.21,0,0,1,.22.11A.42.42,0,0,1,274.86,66.8Z"/><path class="cls-4" d="M281.86,70.13c0,.15,0,.38-.17.38s-.31-.28-.33-.5.05-.39.28-.36S281.83,70,281.86,70.13Z"/><path class="cls-4" d="M282.63,68.73c0,.22-.15.32-.31.31s-.21-.24-.24-.41.08-.24.24-.22A.34.34,0,0,1,282.63,68.73Z"/><path class="cls-4" d="M272.69,59.38c.11.36,0,.54-.25.65a.15.15,0,0,1-.2-.12C272.22,59.61,272.47,59.55,272.69,59.38Z"/><path class="cls-4" d="M273.94,65.86a.2.2,0,0,1-.21.21c-.18,0-.31-.07-.32-.26a.19.19,0,0,1,.21-.2A.29.29,0,0,1,273.94,65.86Z"/><path class="cls-4" d="M282.62,70.34a.16.16,0,0,1,.14.2.3.3,0,0,1-.35.31c-.11,0-.22-.09-.18-.23A.42.42,0,0,1,282.62,70.34Z"/><path class="cls-4" d="M273.27,64.75a.3.3,0,0,1-.37.21.21.21,0,0,1-.16-.26c0-.15.18-.18.32-.16A.2.2,0,0,1,273.27,64.75Z"/><path class="cls-4" d="M277.67,57.61c0,.12-.06.26-.18.24s-.14-.2-.14-.32,0-.2.12-.2S277.66,57.48,277.67,57.61Z"/><path class="cls-4" d="M273.23,57.22a1,1,0,0,1-.17.87A1,1,0,0,1,273.23,57.22Z"/><path class="cls-4" d="M274,58.24c0,.1,0,.18-.13.2a.16.16,0,0,1-.19-.14c0-.12,0-.22.16-.23S274,58.15,274,58.24Z"/><path class="cls-4" d="M277.18,69c0,.08,0,.19-.14.15S277,69,277,68.94s0-.19.14-.15S277.18,68.92,277.18,69Z"/><path class="cls-4" d="M280.07,73.25a.12.12,0,0,1-.13.12.11.11,0,0,1-.12-.12.15.15,0,0,1,.13-.13C280,73.12,280.07,73.17,280.07,73.25Z"/><path class="cls-4" d="M275.36,54.91s-.05.08-.08.09-.06,0-.09-.06,0-.08.07-.08S275.33,54.89,275.36,54.91Z"/><path class="cls-4" d="M283.47,66.28s-.08,0-.12,0a.06.06,0,0,1,0-.1.11.11,0,0,1,.11,0C283.48,66.19,283.49,66.23,283.47,66.28Z"/><path class="cls-4" d="M278.07,74.28l.08.08s-.06.08-.08.08-.06,0-.09-.08Z"/><path class="cls-4" d="M281.33,73.45s-.08-.06-.08-.09.05,0,.08-.08.07.06.07.08S281.35,73.42,281.33,73.45Z"/><path class="cls-4" d="M274.9,55.44l.05,0,0,0s0,.06-.08,0Z"/><path class="cls-4" d="M272.64,58.9l.05,0s0,0,0,0,0,.06-.07,0S272.64,58.92,272.64,58.9Z"/><path class="cls-4" d="M282.11,69.4l.05,0s0,0,0,0-.06,0-.07,0S282.1,69.41,282.11,69.4Z"/><path class="cls-4" d="M280.66,72.68l0,0c0-.05,0-.07.07,0s0,0,0,0S280.67,72.67,280.66,72.68Z"/></g></g></svg>